G04 #@! TF.FileFunction,Legend,Bot*
%FSLAX46Y46*%
G04 Gerber Fmt 4.6, Leading zero omitted, Abs format (unit mm)*
G04 Created by KiCad (PCBNEW 4.0.5) date 02/08/17 14:07:06*
%MOMM*%
%LPD*%
G01*
G04 APERTURE LIST*
%ADD10C,0.150000*%
%ADD11C,0.200000*%
%ADD12C,0.300000*%
%ADD13C,0.100000*%
%ADD14C,0.250000*%
G04 APERTURE END LIST*
D10*
D11*
X3000000Y41800000D02*
X3000000Y37400000D01*
X3000000Y45400000D02*
X3000000Y50000000D01*
X2500000Y44361904D02*
X2452381Y44457142D01*
X2452381Y44599999D01*
X2500000Y44742857D01*
X2595238Y44838095D01*
X2690476Y44885714D01*
X2880952Y44933333D01*
X3023810Y44933333D01*
X3214286Y44885714D01*
X3309524Y44838095D01*
X3404762Y44742857D01*
X3452381Y44599999D01*
X3452381Y44504761D01*
X3404762Y44361904D01*
X3357143Y44314285D01*
X3023810Y44314285D01*
X3023810Y44504761D01*
X3452381Y43885714D02*
X2452381Y43885714D01*
X3452381Y43314285D01*
X2452381Y43314285D01*
X3452381Y42838095D02*
X2452381Y42838095D01*
X2452381Y42600000D01*
X2500000Y42457142D01*
X2595238Y42361904D01*
X2690476Y42314285D01*
X2880952Y42266666D01*
X3023810Y42266666D01*
X3214286Y42314285D01*
X3309524Y42361904D01*
X3404762Y42457142D01*
X3452381Y42600000D01*
X3452381Y42838095D01*
X3000000Y17800000D02*
X3000000Y14400000D01*
X3000000Y21400000D02*
X3000000Y24600000D01*
X2500000Y20361904D02*
X2452381Y20457142D01*
X2452381Y20599999D01*
X2500000Y20742857D01*
X2595238Y20838095D01*
X2690476Y20885714D01*
X2880952Y20933333D01*
X3023810Y20933333D01*
X3214286Y20885714D01*
X3309524Y20838095D01*
X3404762Y20742857D01*
X3452381Y20599999D01*
X3452381Y20504761D01*
X3404762Y20361904D01*
X3357143Y20314285D01*
X3023810Y20314285D01*
X3023810Y20504761D01*
X3452381Y19885714D02*
X2452381Y19885714D01*
X3452381Y19314285D01*
X2452381Y19314285D01*
X3452381Y18838095D02*
X2452381Y18838095D01*
X2452381Y18600000D01*
X2500000Y18457142D01*
X2595238Y18361904D01*
X2690476Y18314285D01*
X2880952Y18266666D01*
X3023810Y18266666D01*
X3214286Y18314285D01*
X3309524Y18361904D01*
X3404762Y18457142D01*
X3452381Y18600000D01*
X3452381Y18838095D01*
X23400000Y2600000D02*
X20000000Y2600000D01*
X26800000Y2600000D02*
X30200000Y2600000D01*
X46200000Y2600000D02*
X42800000Y2600000D01*
X49800000Y2600000D02*
X53000000Y2600000D01*
X68000000Y2600000D02*
X65800000Y2600000D01*
X71400000Y2600000D02*
X73400000Y2600000D01*
X70361904Y2900000D02*
X70457142Y2947619D01*
X70599999Y2947619D01*
X70742857Y2900000D01*
X70838095Y2804762D01*
X70885714Y2709524D01*
X70933333Y2519048D01*
X70933333Y2376190D01*
X70885714Y2185714D01*
X70838095Y2090476D01*
X70742857Y1995238D01*
X70599999Y1947619D01*
X70504761Y1947619D01*
X70361904Y1995238D01*
X70314285Y2042857D01*
X70314285Y2376190D01*
X70504761Y2376190D01*
X69885714Y1947619D02*
X69885714Y2947619D01*
X69314285Y1947619D01*
X69314285Y2947619D01*
X68838095Y1947619D02*
X68838095Y2947619D01*
X68600000Y2947619D01*
X68457142Y2900000D01*
X68361904Y2804762D01*
X68314285Y2709524D01*
X68266666Y2519048D01*
X68266666Y2376190D01*
X68314285Y2185714D01*
X68361904Y2090476D01*
X68457142Y1995238D01*
X68600000Y1947619D01*
X68838095Y1947619D01*
X48761904Y2900000D02*
X48857142Y2947619D01*
X48999999Y2947619D01*
X49142857Y2900000D01*
X49238095Y2804762D01*
X49285714Y2709524D01*
X49333333Y2519048D01*
X49333333Y2376190D01*
X49285714Y2185714D01*
X49238095Y2090476D01*
X49142857Y1995238D01*
X48999999Y1947619D01*
X48904761Y1947619D01*
X48761904Y1995238D01*
X48714285Y2042857D01*
X48714285Y2376190D01*
X48904761Y2376190D01*
X48285714Y1947619D02*
X48285714Y2947619D01*
X47714285Y1947619D01*
X47714285Y2947619D01*
X47238095Y1947619D02*
X47238095Y2947619D01*
X47000000Y2947619D01*
X46857142Y2900000D01*
X46761904Y2804762D01*
X46714285Y2709524D01*
X46666666Y2519048D01*
X46666666Y2376190D01*
X46714285Y2185714D01*
X46761904Y2090476D01*
X46857142Y1995238D01*
X47000000Y1947619D01*
X47238095Y1947619D01*
X25886904Y2975000D02*
X25982142Y3022619D01*
X26124999Y3022619D01*
X26267857Y2975000D01*
X26363095Y2879762D01*
X26410714Y2784524D01*
X26458333Y2594048D01*
X26458333Y2451190D01*
X26410714Y2260714D01*
X26363095Y2165476D01*
X26267857Y2070238D01*
X26124999Y2022619D01*
X26029761Y2022619D01*
X25886904Y2070238D01*
X25839285Y2117857D01*
X25839285Y2451190D01*
X26029761Y2451190D01*
X25410714Y2022619D02*
X25410714Y3022619D01*
X24839285Y2022619D01*
X24839285Y3022619D01*
X24363095Y2022619D02*
X24363095Y3022619D01*
X24125000Y3022619D01*
X23982142Y2975000D01*
X23886904Y2879762D01*
X23839285Y2784524D01*
X23791666Y2594048D01*
X23791666Y2451190D01*
X23839285Y2260714D01*
X23886904Y2165476D01*
X23982142Y2070238D01*
X24125000Y2022619D01*
X24363095Y2022619D01*
D12*
X39764285Y97846429D02*
X39764285Y96846429D01*
X40121428Y98417857D02*
X40478571Y97346429D01*
X39549999Y97346429D01*
X40474999Y95796429D02*
X39546428Y95796429D01*
X40046428Y95225000D01*
X39832142Y95225000D01*
X39689285Y95153571D01*
X39617856Y95082143D01*
X39546428Y94939286D01*
X39546428Y94582143D01*
X39617856Y94439286D01*
X39689285Y94367857D01*
X39832142Y94296429D01*
X40260714Y94296429D01*
X40403571Y94367857D01*
X40474999Y94439286D01*
X40453571Y93178571D02*
X40382142Y93250000D01*
X40239285Y93321429D01*
X39882142Y93321429D01*
X39739285Y93250000D01*
X39667856Y93178571D01*
X39596428Y93035714D01*
X39596428Y92892857D01*
X39667856Y92678571D01*
X40524999Y91821429D01*
X39596428Y91821429D01*
X39621428Y89196429D02*
X40478571Y89196429D01*
X40049999Y89196429D02*
X40049999Y90696429D01*
X40192856Y90482143D01*
X40335714Y90339286D01*
X40478571Y90267857D01*
D11*
X38241667Y87522619D02*
X38241667Y88522619D01*
X37908333Y87808333D01*
X37575000Y88522619D01*
X37575000Y87522619D01*
X36955953Y87522619D02*
X37051191Y87570238D01*
X37098810Y87617857D01*
X37146429Y87713095D01*
X37146429Y87998810D01*
X37098810Y88094048D01*
X37051191Y88141667D01*
X36955953Y88189286D01*
X36813095Y88189286D01*
X36717857Y88141667D01*
X36670238Y88094048D01*
X36622619Y87998810D01*
X36622619Y87713095D01*
X36670238Y87617857D01*
X36717857Y87570238D01*
X36813095Y87522619D01*
X36955953Y87522619D01*
X35765476Y87522619D02*
X35765476Y88522619D01*
X35765476Y87570238D02*
X35860714Y87522619D01*
X36051191Y87522619D01*
X36146429Y87570238D01*
X36194048Y87617857D01*
X36241667Y87713095D01*
X36241667Y87998810D01*
X36194048Y88094048D01*
X36146429Y88141667D01*
X36051191Y88189286D01*
X35860714Y88189286D01*
X35765476Y88141667D01*
X34908333Y87570238D02*
X35003571Y87522619D01*
X35194048Y87522619D01*
X35289286Y87570238D01*
X35336905Y87665476D01*
X35336905Y88046429D01*
X35289286Y88141667D01*
X35194048Y88189286D01*
X35003571Y88189286D01*
X34908333Y88141667D01*
X34860714Y88046429D01*
X34860714Y87951190D01*
X35336905Y87855952D01*
X39289286Y86489286D02*
X39289286Y85632143D01*
X39336905Y85536905D01*
X39432143Y85489286D01*
X39479762Y85489286D01*
X39289286Y86822619D02*
X39336905Y86775000D01*
X39289286Y86727381D01*
X39241667Y86775000D01*
X39289286Y86822619D01*
X39289286Y86727381D01*
X38384524Y86489286D02*
X38384524Y85822619D01*
X38813096Y86489286D02*
X38813096Y85965476D01*
X38765477Y85870238D01*
X38670239Y85822619D01*
X38527381Y85822619D01*
X38432143Y85870238D01*
X38384524Y85917857D01*
X37908334Y85822619D02*
X37908334Y86489286D01*
X37908334Y86394048D02*
X37860715Y86441667D01*
X37765477Y86489286D01*
X37622619Y86489286D01*
X37527381Y86441667D01*
X37479762Y86346429D01*
X37479762Y85822619D01*
X37479762Y86346429D02*
X37432143Y86441667D01*
X37336905Y86489286D01*
X37194048Y86489286D01*
X37098810Y86441667D01*
X37051191Y86346429D01*
X37051191Y85822619D01*
X36575001Y86489286D02*
X36575001Y85489286D01*
X36575001Y86441667D02*
X36479763Y86489286D01*
X36289286Y86489286D01*
X36194048Y86441667D01*
X36146429Y86394048D01*
X36098810Y86298810D01*
X36098810Y86013095D01*
X36146429Y85917857D01*
X36194048Y85870238D01*
X36289286Y85822619D01*
X36479763Y85822619D01*
X36575001Y85870238D01*
X35289286Y85870238D02*
X35384524Y85822619D01*
X35575001Y85822619D01*
X35670239Y85870238D01*
X35717858Y85965476D01*
X35717858Y86346429D01*
X35670239Y86441667D01*
X35575001Y86489286D01*
X35384524Y86489286D01*
X35289286Y86441667D01*
X35241667Y86346429D01*
X35241667Y86251190D01*
X35717858Y86155952D01*
X34813096Y85822619D02*
X34813096Y86489286D01*
X34813096Y86298810D02*
X34765477Y86394048D01*
X34717858Y86441667D01*
X34622620Y86489286D01*
X34527381Y86489286D01*
X34241667Y85870238D02*
X34146429Y85822619D01*
X33955953Y85822619D01*
X33860714Y85870238D01*
X33813095Y85965476D01*
X33813095Y86013095D01*
X33860714Y86108333D01*
X33955953Y86155952D01*
X34098810Y86155952D01*
X34194048Y86203571D01*
X34241667Y86298810D01*
X34241667Y86346429D01*
X34194048Y86441667D01*
X34098810Y86489286D01*
X33955953Y86489286D01*
X33860714Y86441667D01*
X40170239Y84170238D02*
X40027382Y84122619D01*
X39789286Y84122619D01*
X39694048Y84170238D01*
X39646429Y84217857D01*
X39598810Y84313095D01*
X39598810Y84408333D01*
X39646429Y84503571D01*
X39694048Y84551190D01*
X39789286Y84598810D01*
X39979763Y84646429D01*
X40075001Y84694048D01*
X40122620Y84741667D01*
X40170239Y84836905D01*
X40170239Y84932143D01*
X40122620Y85027381D01*
X40075001Y85075000D01*
X39979763Y85122619D01*
X39741667Y85122619D01*
X39598810Y85075000D01*
X39170239Y84122619D02*
X39170239Y85122619D01*
X38741667Y84122619D02*
X38741667Y84646429D01*
X38789286Y84741667D01*
X38884524Y84789286D01*
X39027382Y84789286D01*
X39122620Y84741667D01*
X39170239Y84694048D01*
X38122620Y84122619D02*
X38217858Y84170238D01*
X38265477Y84217857D01*
X38313096Y84313095D01*
X38313096Y84598810D01*
X38265477Y84694048D01*
X38217858Y84741667D01*
X38122620Y84789286D01*
X37979762Y84789286D01*
X37884524Y84741667D01*
X37836905Y84694048D01*
X37789286Y84598810D01*
X37789286Y84313095D01*
X37836905Y84217857D01*
X37884524Y84170238D01*
X37979762Y84122619D01*
X38122620Y84122619D01*
X37360715Y84122619D02*
X37360715Y84789286D01*
X37360715Y84598810D02*
X37313096Y84694048D01*
X37265477Y84741667D01*
X37170239Y84789286D01*
X37075000Y84789286D01*
X36884524Y84789286D02*
X36503572Y84789286D01*
X36741667Y85122619D02*
X36741667Y84265476D01*
X36694048Y84170238D01*
X36598810Y84122619D01*
X36503572Y84122619D01*
X35551190Y84789286D02*
X35170238Y84789286D01*
X35408333Y84122619D02*
X35408333Y84979762D01*
X35360714Y85075000D01*
X35265476Y85122619D01*
X35170238Y85122619D01*
X34694047Y84122619D02*
X34789285Y84170238D01*
X34836904Y84217857D01*
X34884523Y84313095D01*
X34884523Y84598810D01*
X34836904Y84694048D01*
X34789285Y84741667D01*
X34694047Y84789286D01*
X34551189Y84789286D01*
X34455951Y84741667D01*
X34408332Y84694048D01*
X34360713Y84598810D01*
X34360713Y84313095D01*
X34408332Y84217857D01*
X34455951Y84170238D01*
X34551189Y84122619D01*
X34694047Y84122619D01*
X33932142Y84122619D02*
X33932142Y84789286D01*
X33932142Y84598810D02*
X33884523Y84694048D01*
X33836904Y84741667D01*
X33741666Y84789286D01*
X33646427Y84789286D01*
X40027382Y83089286D02*
X40027382Y82089286D01*
X40027382Y83041667D02*
X39932144Y83089286D01*
X39741667Y83089286D01*
X39646429Y83041667D01*
X39598810Y82994048D01*
X39551191Y82898810D01*
X39551191Y82613095D01*
X39598810Y82517857D01*
X39646429Y82470238D01*
X39741667Y82422619D01*
X39932144Y82422619D01*
X40027382Y82470238D01*
X38694048Y83089286D02*
X38694048Y82422619D01*
X39122620Y83089286D02*
X39122620Y82565476D01*
X39075001Y82470238D01*
X38979763Y82422619D01*
X38836905Y82422619D01*
X38741667Y82470238D01*
X38694048Y82517857D01*
X38075001Y82422619D02*
X38170239Y82470238D01*
X38217858Y82565476D01*
X38217858Y83422619D01*
X37551191Y82422619D02*
X37646429Y82470238D01*
X37694048Y82565476D01*
X37694048Y83422619D01*
X35979761Y82422619D02*
X35979761Y83422619D01*
X35979761Y82470238D02*
X36074999Y82422619D01*
X36265476Y82422619D01*
X36360714Y82470238D01*
X36408333Y82517857D01*
X36455952Y82613095D01*
X36455952Y82898810D01*
X36408333Y82994048D01*
X36360714Y83041667D01*
X36265476Y83089286D01*
X36074999Y83089286D01*
X35979761Y83041667D01*
X35360714Y82422619D02*
X35455952Y82470238D01*
X35503571Y82517857D01*
X35551190Y82613095D01*
X35551190Y82898810D01*
X35503571Y82994048D01*
X35455952Y83041667D01*
X35360714Y83089286D01*
X35217856Y83089286D01*
X35122618Y83041667D01*
X35074999Y82994048D01*
X35027380Y82898810D01*
X35027380Y82613095D01*
X35074999Y82517857D01*
X35122618Y82470238D01*
X35217856Y82422619D01*
X35360714Y82422619D01*
X34694047Y83089286D02*
X34503571Y82422619D01*
X34313094Y82898810D01*
X34122618Y82422619D01*
X33932142Y83089286D01*
X33551190Y83089286D02*
X33551190Y82422619D01*
X33551190Y82994048D02*
X33503571Y83041667D01*
X33408333Y83089286D01*
X33265475Y83089286D01*
X33170237Y83041667D01*
X33122618Y82946429D01*
X33122618Y82422619D01*
X2652381Y81361906D02*
X3652381Y80695239D01*
X2652381Y80695239D02*
X3652381Y81361906D01*
X3652381Y80314287D02*
X2652381Y80314287D01*
X3366667Y79980953D01*
X2652381Y79647620D01*
X3652381Y79647620D01*
X2652381Y78980954D02*
X2652381Y78790477D01*
X2700000Y78695239D01*
X2795238Y78600001D01*
X2985714Y78552382D01*
X3319048Y78552382D01*
X3509524Y78600001D01*
X3604762Y78695239D01*
X3652381Y78790477D01*
X3652381Y78980954D01*
X3604762Y79076192D01*
X3509524Y79171430D01*
X3319048Y79219049D01*
X2985714Y79219049D01*
X2795238Y79171430D01*
X2700000Y79076192D01*
X2652381Y78980954D01*
X3604762Y78171430D02*
X3652381Y78028573D01*
X3652381Y77790477D01*
X3604762Y77695239D01*
X3557143Y77647620D01*
X3461905Y77600001D01*
X3366667Y77600001D01*
X3271429Y77647620D01*
X3223810Y77695239D01*
X3176190Y77790477D01*
X3128571Y77980954D01*
X3080952Y78076192D01*
X3033333Y78123811D01*
X2938095Y78171430D01*
X2842857Y78171430D01*
X2747619Y78123811D01*
X2700000Y78076192D01*
X2652381Y77980954D01*
X2652381Y77742858D01*
X2700000Y77600001D01*
X2652381Y76504763D02*
X3652381Y75838096D01*
X2652381Y75838096D02*
X3652381Y76504763D01*
X2652381Y75600001D02*
X2652381Y75028572D01*
X3652381Y75314287D02*
X2652381Y75314287D01*
X3366667Y74742858D02*
X3366667Y74266667D01*
X3652381Y74838096D02*
X2652381Y74504763D01*
X3652381Y74171429D01*
X2700000Y73314286D02*
X2652381Y73409524D01*
X2652381Y73552381D01*
X2700000Y73695239D01*
X2795238Y73790477D01*
X2890476Y73838096D01*
X3080952Y73885715D01*
X3223810Y73885715D01*
X3414286Y73838096D01*
X3509524Y73790477D01*
X3604762Y73695239D01*
X3652381Y73552381D01*
X3652381Y73457143D01*
X3604762Y73314286D01*
X3557143Y73266667D01*
X3223810Y73266667D01*
X3223810Y73457143D01*
X3652381Y72076191D02*
X2652381Y72076191D01*
X2985714Y71600001D02*
X3652381Y71600001D01*
X3080952Y71600001D02*
X3033333Y71552382D01*
X2985714Y71457144D01*
X2985714Y71314286D01*
X3033333Y71219048D01*
X3128571Y71171429D01*
X3652381Y71171429D01*
X2985714Y70838096D02*
X2985714Y70457144D01*
X2652381Y70695239D02*
X3509524Y70695239D01*
X3604762Y70647620D01*
X3652381Y70552382D01*
X3652381Y70457144D01*
X3604762Y69742857D02*
X3652381Y69838095D01*
X3652381Y70028572D01*
X3604762Y70123810D01*
X3509524Y70171429D01*
X3128571Y70171429D01*
X3033333Y70123810D01*
X2985714Y70028572D01*
X2985714Y69838095D01*
X3033333Y69742857D01*
X3128571Y69695238D01*
X3223810Y69695238D01*
X3319048Y70171429D01*
X3652381Y69266667D02*
X2985714Y69266667D01*
X3176190Y69266667D02*
X3080952Y69219048D01*
X3033333Y69171429D01*
X2985714Y69076191D01*
X2985714Y68980952D01*
X2985714Y68790476D02*
X2985714Y68409524D01*
X3652381Y68647619D02*
X2795238Y68647619D01*
X2700000Y68600000D01*
X2652381Y68504762D01*
X2652381Y68409524D01*
X3652381Y67647618D02*
X3128571Y67647618D01*
X3033333Y67695237D01*
X2985714Y67790475D01*
X2985714Y67980952D01*
X3033333Y68076190D01*
X3604762Y67647618D02*
X3652381Y67742856D01*
X3652381Y67980952D01*
X3604762Y68076190D01*
X3509524Y68123809D01*
X3414286Y68123809D01*
X3319048Y68076190D01*
X3271429Y67980952D01*
X3271429Y67742856D01*
X3223810Y67647618D01*
X3604762Y66742856D02*
X3652381Y66838094D01*
X3652381Y67028571D01*
X3604762Y67123809D01*
X3557143Y67171428D01*
X3461905Y67219047D01*
X3176190Y67219047D01*
X3080952Y67171428D01*
X3033333Y67123809D01*
X2985714Y67028571D01*
X2985714Y66838094D01*
X3033333Y66742856D01*
X3604762Y65933332D02*
X3652381Y66028570D01*
X3652381Y66219047D01*
X3604762Y66314285D01*
X3509524Y66361904D01*
X3128571Y66361904D01*
X3033333Y66314285D01*
X2985714Y66219047D01*
X2985714Y66028570D01*
X3033333Y65933332D01*
X3128571Y65885713D01*
X3223810Y65885713D01*
X3319048Y66361904D01*
X86809524Y3195238D02*
X86666667Y3147619D01*
X86428571Y3147619D01*
X86333333Y3195238D01*
X86285714Y3242857D01*
X86238095Y3338095D01*
X86238095Y3433333D01*
X86285714Y3528571D01*
X86333333Y3576190D01*
X86428571Y3623810D01*
X86619048Y3671429D01*
X86714286Y3719048D01*
X86761905Y3766667D01*
X86809524Y3861905D01*
X86809524Y3957143D01*
X86761905Y4052381D01*
X86714286Y4100000D01*
X86619048Y4147619D01*
X86380952Y4147619D01*
X86238095Y4100000D01*
X85809524Y3147619D02*
X85809524Y4147619D01*
X85428571Y4147619D01*
X85333333Y4100000D01*
X85285714Y4052381D01*
X85238095Y3957143D01*
X85238095Y3814286D01*
X85285714Y3719048D01*
X85333333Y3671429D01*
X85428571Y3623810D01*
X85809524Y3623810D01*
X84809524Y3147619D02*
X84809524Y4147619D01*
X84571429Y4147619D01*
X84428571Y4100000D01*
X84333333Y4004762D01*
X84285714Y3909524D01*
X84238095Y3719048D01*
X84238095Y3576190D01*
X84285714Y3385714D01*
X84333333Y3290476D01*
X84428571Y3195238D01*
X84571429Y3147619D01*
X84809524Y3147619D01*
X83809524Y3147619D02*
X83809524Y4147619D01*
X83000000Y3671429D02*
X83333334Y3671429D01*
X83333334Y3147619D02*
X83333334Y4147619D01*
X82857143Y4147619D01*
D12*
X91878571Y2249999D02*
X91164286Y2749999D01*
X91878571Y3107142D02*
X90378571Y3107142D01*
X90378571Y2535714D01*
X90450000Y2392856D01*
X90521429Y2321428D01*
X90664286Y2249999D01*
X90878571Y2249999D01*
X91021429Y2321428D01*
X91092857Y2392856D01*
X91164286Y2535714D01*
X91164286Y3107142D01*
X90378571Y1749999D02*
X91878571Y749999D01*
X90378571Y749999D02*
X91878571Y1749999D01*
X79342857Y2421429D02*
X78485714Y2421429D01*
X78914285Y921429D02*
X78914285Y2421429D01*
X78128571Y2421429D02*
X77128571Y921429D01*
X77128571Y2421429D02*
X78128571Y921429D01*
D11*
X81400000Y34000000D02*
X82000000Y34000000D01*
X81400000Y32200000D02*
X81400000Y34000000D01*
X82000000Y32200000D02*
X81400000Y32200000D01*
X81400000Y31000000D02*
X82000000Y31000000D01*
X81400000Y29000000D02*
X81400000Y31000000D01*
X82000000Y29000000D02*
X81400000Y29000000D01*
X80757143Y30319047D02*
X80804762Y30366666D01*
X80852381Y30509523D01*
X80852381Y30604761D01*
X80804762Y30747619D01*
X80709524Y30842857D01*
X80614286Y30890476D01*
X80423810Y30938095D01*
X80280952Y30938095D01*
X80090476Y30890476D01*
X79995238Y30842857D01*
X79900000Y30747619D01*
X79852381Y30604761D01*
X79852381Y30509523D01*
X79900000Y30366666D01*
X79947619Y30319047D01*
X79852381Y29700000D02*
X79852381Y29509523D01*
X79900000Y29414285D01*
X79995238Y29319047D01*
X80185714Y29271428D01*
X80519048Y29271428D01*
X80709524Y29319047D01*
X80804762Y29414285D01*
X80852381Y29509523D01*
X80852381Y29700000D01*
X80804762Y29795238D01*
X80709524Y29890476D01*
X80519048Y29938095D01*
X80185714Y29938095D01*
X79995238Y29890476D01*
X79900000Y29795238D01*
X79852381Y29700000D01*
X80566667Y28890476D02*
X80566667Y28414285D01*
X80852381Y28985714D02*
X79852381Y28652381D01*
X80852381Y28319047D01*
X79852381Y28080952D02*
X80852381Y27414285D01*
X79852381Y27414285D02*
X80852381Y28080952D01*
X79852381Y34576191D02*
X79852381Y34385714D01*
X79900000Y34290476D01*
X79995238Y34195238D01*
X80185714Y34147619D01*
X80519048Y34147619D01*
X80709524Y34195238D01*
X80804762Y34290476D01*
X80852381Y34385714D01*
X80852381Y34576191D01*
X80804762Y34671429D01*
X80709524Y34766667D01*
X80519048Y34814286D01*
X80185714Y34814286D01*
X79995238Y34766667D01*
X79900000Y34671429D01*
X79852381Y34576191D01*
X80852381Y33719048D02*
X79852381Y33719048D01*
X79852381Y33338095D01*
X79900000Y33242857D01*
X79947619Y33195238D01*
X80042857Y33147619D01*
X80185714Y33147619D01*
X80280952Y33195238D01*
X80328571Y33242857D01*
X80376190Y33338095D01*
X80376190Y33719048D01*
X79852381Y32861905D02*
X79852381Y32290476D01*
X80852381Y32576191D02*
X79852381Y32576191D01*
X74904762Y37614286D02*
X74952381Y37471429D01*
X74952381Y37233333D01*
X74904762Y37138095D01*
X74857143Y37090476D01*
X74761905Y37042857D01*
X74666667Y37042857D01*
X74571429Y37090476D01*
X74523810Y37138095D01*
X74476190Y37233333D01*
X74428571Y37423810D01*
X74380952Y37519048D01*
X74333333Y37566667D01*
X74238095Y37614286D01*
X74142857Y37614286D01*
X74047619Y37566667D01*
X74000000Y37519048D01*
X73952381Y37423810D01*
X73952381Y37185714D01*
X74000000Y37042857D01*
X74952381Y36614286D02*
X73952381Y36614286D01*
X73952381Y36233333D01*
X74000000Y36138095D01*
X74047619Y36090476D01*
X74142857Y36042857D01*
X74285714Y36042857D01*
X74380952Y36090476D01*
X74428571Y36138095D01*
X74476190Y36233333D01*
X74476190Y36614286D01*
X74952381Y35614286D02*
X73952381Y35614286D01*
X73952381Y35376191D01*
X74000000Y35233333D01*
X74095238Y35138095D01*
X74190476Y35090476D01*
X74380952Y35042857D01*
X74523810Y35042857D01*
X74714286Y35090476D01*
X74809524Y35138095D01*
X74904762Y35233333D01*
X74952381Y35376191D01*
X74952381Y35614286D01*
X74952381Y34614286D02*
X73952381Y34614286D01*
X74428571Y33804762D02*
X74428571Y34138096D01*
X74952381Y34138096D02*
X73952381Y34138096D01*
X73952381Y33661905D01*
X74952381Y32519048D02*
X73952381Y32519048D01*
X74285714Y32042858D02*
X74952381Y32042858D01*
X74380952Y32042858D02*
X74333333Y31995239D01*
X74285714Y31900001D01*
X74285714Y31757143D01*
X74333333Y31661905D01*
X74428571Y31614286D01*
X74952381Y31614286D01*
X74285714Y31138096D02*
X75285714Y31138096D01*
X74333333Y31138096D02*
X74285714Y31042858D01*
X74285714Y30852381D01*
X74333333Y30757143D01*
X74380952Y30709524D01*
X74476190Y30661905D01*
X74761905Y30661905D01*
X74857143Y30709524D01*
X74904762Y30757143D01*
X74952381Y30852381D01*
X74952381Y31042858D01*
X74904762Y31138096D01*
X74285714Y29804762D02*
X74952381Y29804762D01*
X74285714Y30233334D02*
X74809524Y30233334D01*
X74904762Y30185715D01*
X74952381Y30090477D01*
X74952381Y29947619D01*
X74904762Y29852381D01*
X74857143Y29804762D01*
X74285714Y29471429D02*
X74285714Y29090477D01*
X73952381Y29328572D02*
X74809524Y29328572D01*
X74904762Y29280953D01*
X74952381Y29185715D01*
X74952381Y29090477D01*
X76604762Y36590477D02*
X76652381Y36495239D01*
X76652381Y36304763D01*
X76604762Y36209524D01*
X76509524Y36161905D01*
X76461905Y36161905D01*
X76366667Y36209524D01*
X76319048Y36304763D01*
X76319048Y36447620D01*
X76271429Y36542858D01*
X76176190Y36590477D01*
X76128571Y36590477D01*
X76033333Y36542858D01*
X75985714Y36447620D01*
X75985714Y36304763D01*
X76033333Y36209524D01*
X76604762Y35352381D02*
X76652381Y35447619D01*
X76652381Y35638096D01*
X76604762Y35733334D01*
X76509524Y35780953D01*
X76128571Y35780953D01*
X76033333Y35733334D01*
X75985714Y35638096D01*
X75985714Y35447619D01*
X76033333Y35352381D01*
X76128571Y35304762D01*
X76223810Y35304762D01*
X76319048Y35780953D01*
X76652381Y34733334D02*
X76604762Y34828572D01*
X76509524Y34876191D01*
X75652381Y34876191D01*
X76604762Y33971428D02*
X76652381Y34066666D01*
X76652381Y34257143D01*
X76604762Y34352381D01*
X76509524Y34400000D01*
X76128571Y34400000D01*
X76033333Y34352381D01*
X75985714Y34257143D01*
X75985714Y34066666D01*
X76033333Y33971428D01*
X76128571Y33923809D01*
X76223810Y33923809D01*
X76319048Y34400000D01*
X76604762Y33066666D02*
X76652381Y33161904D01*
X76652381Y33352381D01*
X76604762Y33447619D01*
X76557143Y33495238D01*
X76461905Y33542857D01*
X76176190Y33542857D01*
X76080952Y33495238D01*
X76033333Y33447619D01*
X75985714Y33352381D01*
X75985714Y33161904D01*
X76033333Y33066666D01*
X75985714Y32780952D02*
X75985714Y32400000D01*
X75652381Y32638095D02*
X76509524Y32638095D01*
X76604762Y32590476D01*
X76652381Y32495238D01*
X76652381Y32400000D01*
X76652381Y32066666D02*
X75985714Y32066666D01*
X75652381Y32066666D02*
X75700000Y32114285D01*
X75747619Y32066666D01*
X75700000Y32019047D01*
X75652381Y32066666D01*
X75747619Y32066666D01*
X76652381Y31447619D02*
X76604762Y31542857D01*
X76557143Y31590476D01*
X76461905Y31638095D01*
X76176190Y31638095D01*
X76080952Y31590476D01*
X76033333Y31542857D01*
X75985714Y31447619D01*
X75985714Y31304761D01*
X76033333Y31209523D01*
X76080952Y31161904D01*
X76176190Y31114285D01*
X76461905Y31114285D01*
X76557143Y31161904D01*
X76604762Y31209523D01*
X76652381Y31304761D01*
X76652381Y31447619D01*
X75985714Y30685714D02*
X76652381Y30685714D01*
X76080952Y30685714D02*
X76033333Y30638095D01*
X75985714Y30542857D01*
X75985714Y30399999D01*
X76033333Y30304761D01*
X76128571Y30257142D01*
X76652381Y30257142D01*
X77685714Y35709524D02*
X78542857Y35709524D01*
X78638095Y35757143D01*
X78685714Y35852381D01*
X78685714Y35900000D01*
X77352381Y35709524D02*
X77400000Y35757143D01*
X77447619Y35709524D01*
X77400000Y35661905D01*
X77352381Y35709524D01*
X77447619Y35709524D01*
X77685714Y34804762D02*
X78352381Y34804762D01*
X77685714Y35233334D02*
X78209524Y35233334D01*
X78304762Y35185715D01*
X78352381Y35090477D01*
X78352381Y34947619D01*
X78304762Y34852381D01*
X78257143Y34804762D01*
X78352381Y34328572D02*
X77685714Y34328572D01*
X77780952Y34328572D02*
X77733333Y34280953D01*
X77685714Y34185715D01*
X77685714Y34042857D01*
X77733333Y33947619D01*
X77828571Y33900000D01*
X78352381Y33900000D01*
X77828571Y33900000D02*
X77733333Y33852381D01*
X77685714Y33757143D01*
X77685714Y33614286D01*
X77733333Y33519048D01*
X77828571Y33471429D01*
X78352381Y33471429D01*
X77685714Y32995239D02*
X78685714Y32995239D01*
X77733333Y32995239D02*
X77685714Y32900001D01*
X77685714Y32709524D01*
X77733333Y32614286D01*
X77780952Y32566667D01*
X77876190Y32519048D01*
X78161905Y32519048D01*
X78257143Y32566667D01*
X78304762Y32614286D01*
X78352381Y32709524D01*
X78352381Y32900001D01*
X78304762Y32995239D01*
X78304762Y31709524D02*
X78352381Y31804762D01*
X78352381Y31995239D01*
X78304762Y32090477D01*
X78209524Y32138096D01*
X77828571Y32138096D01*
X77733333Y32090477D01*
X77685714Y31995239D01*
X77685714Y31804762D01*
X77733333Y31709524D01*
X77828571Y31661905D01*
X77923810Y31661905D01*
X78019048Y32138096D01*
X78352381Y31233334D02*
X77685714Y31233334D01*
X77876190Y31233334D02*
X77780952Y31185715D01*
X77733333Y31138096D01*
X77685714Y31042858D01*
X77685714Y30947619D01*
X41452381Y11014286D02*
X40452381Y11014286D01*
X41166667Y10680952D01*
X40452381Y10347619D01*
X41452381Y10347619D01*
X41357143Y9300000D02*
X41404762Y9347619D01*
X41452381Y9490476D01*
X41452381Y9585714D01*
X41404762Y9728572D01*
X41309524Y9823810D01*
X41214286Y9871429D01*
X41023810Y9919048D01*
X40880952Y9919048D01*
X40690476Y9871429D01*
X40595238Y9823810D01*
X40500000Y9728572D01*
X40452381Y9585714D01*
X40452381Y9490476D01*
X40500000Y9347619D01*
X40547619Y9300000D01*
X41452381Y8395238D02*
X41452381Y8871429D01*
X40452381Y8871429D01*
X41452381Y8061905D02*
X40452381Y8061905D01*
X41452381Y7490476D02*
X40880952Y7919048D01*
X40452381Y7490476D02*
X41023810Y8061905D01*
X40547619Y7109524D02*
X40500000Y7061905D01*
X40452381Y6966667D01*
X40452381Y6728571D01*
X40500000Y6633333D01*
X40547619Y6585714D01*
X40642857Y6538095D01*
X40738095Y6538095D01*
X40880952Y6585714D01*
X41452381Y7157143D01*
X41452381Y6538095D01*
X40928571Y5776190D02*
X40976190Y5633333D01*
X41023810Y5585714D01*
X41119048Y5538095D01*
X41261905Y5538095D01*
X41357143Y5585714D01*
X41404762Y5633333D01*
X41452381Y5728571D01*
X41452381Y6109524D01*
X40452381Y6109524D01*
X40452381Y5776190D01*
X40500000Y5680952D01*
X40547619Y5633333D01*
X40642857Y5585714D01*
X40738095Y5585714D01*
X40833333Y5633333D01*
X40880952Y5680952D01*
X40928571Y5776190D01*
X40928571Y6109524D01*
X40404762Y4395238D02*
X41690476Y5252381D01*
X41452381Y4061905D02*
X40452381Y4061905D01*
X40452381Y3823810D01*
X40500000Y3680952D01*
X40595238Y3585714D01*
X40690476Y3538095D01*
X40880952Y3490476D01*
X41023810Y3490476D01*
X41214286Y3538095D01*
X41309524Y3585714D01*
X41404762Y3680952D01*
X41452381Y3823810D01*
X41452381Y4061905D01*
X40452381Y3157143D02*
X40452381Y2538095D01*
X40833333Y2871429D01*
X40833333Y2728571D01*
X40880952Y2633333D01*
X40928571Y2585714D01*
X41023810Y2538095D01*
X41261905Y2538095D01*
X41357143Y2585714D01*
X41404762Y2633333D01*
X41452381Y2728571D01*
X41452381Y3014286D01*
X41404762Y3109524D01*
X41357143Y3157143D01*
X45952381Y9916666D02*
X45952381Y10392857D01*
X44952381Y10392857D01*
X45952381Y9011904D02*
X45476190Y9345238D01*
X45952381Y9583333D02*
X44952381Y9583333D01*
X44952381Y9202380D01*
X45000000Y9107142D01*
X45047619Y9059523D01*
X45142857Y9011904D01*
X45285714Y9011904D01*
X45380952Y9059523D01*
X45428571Y9107142D01*
X45476190Y9202380D01*
X45476190Y9583333D01*
X45047619Y8630952D02*
X45000000Y8583333D01*
X44952381Y8488095D01*
X44952381Y8249999D01*
X45000000Y8154761D01*
X45047619Y8107142D01*
X45142857Y8059523D01*
X45238095Y8059523D01*
X45380952Y8107142D01*
X45952381Y8678571D01*
X45952381Y8059523D01*
X47835918Y9204761D02*
X47883537Y9061904D01*
X47931157Y9014285D01*
X48026395Y8966666D01*
X48169252Y8966666D01*
X48264490Y9014285D01*
X48312109Y9061904D01*
X48359728Y9157142D01*
X48359728Y9538095D01*
X47359728Y9538095D01*
X47359728Y9204761D01*
X47407347Y9109523D01*
X47454966Y9061904D01*
X47550204Y9014285D01*
X47645442Y9014285D01*
X47740680Y9061904D01*
X47788299Y9109523D01*
X47835918Y9204761D01*
X47835918Y9538095D01*
X47454966Y8585714D02*
X47407347Y8538095D01*
X47359728Y8442857D01*
X47359728Y8204761D01*
X47407347Y8109523D01*
X47454966Y8061904D01*
X47550204Y8014285D01*
X47645442Y8014285D01*
X47788299Y8061904D01*
X48359728Y8633333D01*
X48359728Y8014285D01*
X50959728Y9538095D02*
X49959728Y9538095D01*
X49959728Y9300000D01*
X50007347Y9157142D01*
X50102585Y9061904D01*
X50197823Y9014285D01*
X50388299Y8966666D01*
X50531157Y8966666D01*
X50721633Y9014285D01*
X50816871Y9061904D01*
X50912109Y9157142D01*
X50959728Y9300000D01*
X50959728Y9538095D01*
X50054966Y8585714D02*
X50007347Y8538095D01*
X49959728Y8442857D01*
X49959728Y8204761D01*
X50007347Y8109523D01*
X50054966Y8061904D01*
X50150204Y8014285D01*
X50245442Y8014285D01*
X50388299Y8061904D01*
X50959728Y8633333D01*
X50959728Y8014285D01*
X18652381Y11014286D02*
X17652381Y11014286D01*
X18366667Y10680952D01*
X17652381Y10347619D01*
X18652381Y10347619D01*
X18557143Y9300000D02*
X18604762Y9347619D01*
X18652381Y9490476D01*
X18652381Y9585714D01*
X18604762Y9728572D01*
X18509524Y9823810D01*
X18414286Y9871429D01*
X18223810Y9919048D01*
X18080952Y9919048D01*
X17890476Y9871429D01*
X17795238Y9823810D01*
X17700000Y9728572D01*
X17652381Y9585714D01*
X17652381Y9490476D01*
X17700000Y9347619D01*
X17747619Y9300000D01*
X18652381Y8395238D02*
X18652381Y8871429D01*
X17652381Y8871429D01*
X18652381Y8061905D02*
X17652381Y8061905D01*
X18652381Y7490476D02*
X18080952Y7919048D01*
X17652381Y7490476D02*
X18223810Y8061905D01*
X17747619Y7109524D02*
X17700000Y7061905D01*
X17652381Y6966667D01*
X17652381Y6728571D01*
X17700000Y6633333D01*
X17747619Y6585714D01*
X17842857Y6538095D01*
X17938095Y6538095D01*
X18080952Y6585714D01*
X18652381Y7157143D01*
X18652381Y6538095D01*
X18128571Y5776190D02*
X18176190Y5633333D01*
X18223810Y5585714D01*
X18319048Y5538095D01*
X18461905Y5538095D01*
X18557143Y5585714D01*
X18604762Y5633333D01*
X18652381Y5728571D01*
X18652381Y6109524D01*
X17652381Y6109524D01*
X17652381Y5776190D01*
X17700000Y5680952D01*
X17747619Y5633333D01*
X17842857Y5585714D01*
X17938095Y5585714D01*
X18033333Y5633333D01*
X18080952Y5680952D01*
X18128571Y5776190D01*
X18128571Y6109524D01*
X17604762Y4395238D02*
X18890476Y5252381D01*
X18652381Y4061905D02*
X17652381Y4061905D01*
X17652381Y3823810D01*
X17700000Y3680952D01*
X17795238Y3585714D01*
X17890476Y3538095D01*
X18080952Y3490476D01*
X18223810Y3490476D01*
X18414286Y3538095D01*
X18509524Y3585714D01*
X18604762Y3680952D01*
X18652381Y3823810D01*
X18652381Y4061905D01*
X17985714Y2633333D02*
X18652381Y2633333D01*
X17604762Y2871429D02*
X18319048Y3109524D01*
X18319048Y2490476D01*
X23159728Y9591081D02*
X23159728Y10067272D01*
X22159728Y10067272D01*
X23159728Y8686319D02*
X22683537Y9019653D01*
X23159728Y9257748D02*
X22159728Y9257748D01*
X22159728Y8876795D01*
X22207347Y8781557D01*
X22254966Y8733938D01*
X22350204Y8686319D01*
X22493061Y8686319D01*
X22588299Y8733938D01*
X22635918Y8781557D01*
X22683537Y8876795D01*
X22683537Y9257748D01*
X23159728Y7733938D02*
X23159728Y8305367D01*
X23159728Y8019653D02*
X22159728Y8019653D01*
X22302585Y8114891D01*
X22397823Y8210129D01*
X22445442Y8305367D01*
X25035918Y9204761D02*
X25083537Y9061904D01*
X25131157Y9014285D01*
X25226395Y8966666D01*
X25369252Y8966666D01*
X25464490Y9014285D01*
X25512109Y9061904D01*
X25559728Y9157142D01*
X25559728Y9538095D01*
X24559728Y9538095D01*
X24559728Y9204761D01*
X24607347Y9109523D01*
X24654966Y9061904D01*
X24750204Y9014285D01*
X24845442Y9014285D01*
X24940680Y9061904D01*
X24988299Y9109523D01*
X25035918Y9204761D01*
X25035918Y9538095D01*
X25559728Y8014285D02*
X25559728Y8585714D01*
X25559728Y8300000D02*
X24559728Y8300000D01*
X24702585Y8395238D01*
X24797823Y8490476D01*
X24845442Y8585714D01*
X28159728Y9538095D02*
X27159728Y9538095D01*
X27159728Y9300000D01*
X27207347Y9157142D01*
X27302585Y9061904D01*
X27397823Y9014285D01*
X27588299Y8966666D01*
X27731157Y8966666D01*
X27921633Y9014285D01*
X28016871Y9061904D01*
X28112109Y9157142D01*
X28159728Y9300000D01*
X28159728Y9538095D01*
X28159728Y8014285D02*
X28159728Y8585714D01*
X28159728Y8300000D02*
X27159728Y8300000D01*
X27302585Y8395238D01*
X27397823Y8490476D01*
X27445442Y8585714D01*
X10514286Y25947619D02*
X10514286Y26947619D01*
X10180952Y26233333D01*
X9847619Y26947619D01*
X9847619Y25947619D01*
X8800000Y26042857D02*
X8847619Y25995238D01*
X8990476Y25947619D01*
X9085714Y25947619D01*
X9228572Y25995238D01*
X9323810Y26090476D01*
X9371429Y26185714D01*
X9419048Y26376190D01*
X9419048Y26519048D01*
X9371429Y26709524D01*
X9323810Y26804762D01*
X9228572Y26900000D01*
X9085714Y26947619D01*
X8990476Y26947619D01*
X8847619Y26900000D01*
X8800000Y26852381D01*
X7895238Y25947619D02*
X8371429Y25947619D01*
X8371429Y26947619D01*
X7561905Y25947619D02*
X7561905Y26947619D01*
X6990476Y25947619D02*
X7419048Y26519048D01*
X6990476Y26947619D02*
X7561905Y26376190D01*
X6038095Y25947619D02*
X6609524Y25947619D01*
X6323810Y25947619D02*
X6323810Y26947619D01*
X6419048Y26804762D01*
X6514286Y26709524D01*
X6609524Y26661905D01*
X5276190Y26471429D02*
X5133333Y26423810D01*
X5085714Y26376190D01*
X5038095Y26280952D01*
X5038095Y26138095D01*
X5085714Y26042857D01*
X5133333Y25995238D01*
X5228571Y25947619D01*
X5609524Y25947619D01*
X5609524Y26947619D01*
X5276190Y26947619D01*
X5180952Y26900000D01*
X5133333Y26852381D01*
X5085714Y26757143D01*
X5085714Y26661905D01*
X5133333Y26566667D01*
X5180952Y26519048D01*
X5276190Y26471429D01*
X5609524Y26471429D01*
X12576191Y16547619D02*
X12576191Y17547619D01*
X12338096Y17547619D01*
X12195238Y17500000D01*
X12100000Y17404762D01*
X12052381Y17309524D01*
X12004762Y17119048D01*
X12004762Y16976190D01*
X12052381Y16785714D01*
X12100000Y16690476D01*
X12195238Y16595238D01*
X12338096Y16547619D01*
X12576191Y16547619D01*
X11623810Y16833333D02*
X11147619Y16833333D01*
X11719048Y16547619D02*
X11385715Y17547619D01*
X11052381Y16547619D01*
X10861905Y17547619D02*
X10290476Y17547619D01*
X10576191Y16547619D02*
X10576191Y17547619D01*
X10004762Y16833333D02*
X9528571Y16833333D01*
X10100000Y16547619D02*
X9766667Y17547619D01*
X9433333Y16547619D01*
X8909524Y17547619D02*
X8814285Y17547619D01*
X8719047Y17500000D01*
X8671428Y17452381D01*
X8623809Y17357143D01*
X8576190Y17166667D01*
X8576190Y16928571D01*
X8623809Y16738095D01*
X8671428Y16642857D01*
X8719047Y16595238D01*
X8814285Y16547619D01*
X8909524Y16547619D01*
X9004762Y16595238D01*
X9052381Y16642857D01*
X9100000Y16738095D01*
X9147619Y16928571D01*
X9147619Y17166667D01*
X9100000Y17357143D01*
X9052381Y17452381D01*
X9004762Y17500000D01*
X8909524Y17547619D01*
X9604761Y19671429D02*
X9461904Y19623810D01*
X9414285Y19576190D01*
X9366666Y19480952D01*
X9366666Y19338095D01*
X9414285Y19242857D01*
X9461904Y19195238D01*
X9557142Y19147619D01*
X9938095Y19147619D01*
X9938095Y20147619D01*
X9604761Y20147619D01*
X9509523Y20100000D01*
X9461904Y20052381D01*
X9414285Y19957143D01*
X9414285Y19861905D01*
X9461904Y19766667D01*
X9509523Y19719048D01*
X9604761Y19671429D01*
X9938095Y19671429D01*
X8747619Y20147619D02*
X8652380Y20147619D01*
X8557142Y20100000D01*
X8509523Y20052381D01*
X8461904Y19957143D01*
X8414285Y19766667D01*
X8414285Y19528571D01*
X8461904Y19338095D01*
X8509523Y19242857D01*
X8557142Y19195238D01*
X8652380Y19147619D01*
X8747619Y19147619D01*
X8842857Y19195238D01*
X8890476Y19242857D01*
X8938095Y19338095D01*
X8985714Y19528571D01*
X8985714Y19766667D01*
X8938095Y19957143D01*
X8890476Y20052381D01*
X8842857Y20100000D01*
X8747619Y20147619D01*
D12*
X99092857Y82021429D02*
X99092857Y80807143D01*
X99021429Y80664286D01*
X98950000Y80592857D01*
X98807143Y80521429D01*
X98521429Y80521429D01*
X98378571Y80592857D01*
X98307143Y80664286D01*
X98235714Y80807143D01*
X98235714Y82021429D01*
X97592857Y80592857D02*
X97378571Y80521429D01*
X97021428Y80521429D01*
X96878571Y80592857D01*
X96807142Y80664286D01*
X96735714Y80807143D01*
X96735714Y80950000D01*
X96807142Y81092857D01*
X96878571Y81164286D01*
X97021428Y81235714D01*
X97307142Y81307143D01*
X97450000Y81378571D01*
X97521428Y81450000D01*
X97592857Y81592857D01*
X97592857Y81735714D01*
X97521428Y81878571D01*
X97450000Y81950000D01*
X97307142Y82021429D01*
X96950000Y82021429D01*
X96735714Y81950000D01*
X95592857Y81307143D02*
X95378571Y81235714D01*
X95307143Y81164286D01*
X95235714Y81021429D01*
X95235714Y80807143D01*
X95307143Y80664286D01*
X95378571Y80592857D01*
X95521429Y80521429D01*
X96092857Y80521429D01*
X96092857Y82021429D01*
X95592857Y82021429D01*
X95450000Y81950000D01*
X95378571Y81878571D01*
X95307143Y81735714D01*
X95307143Y81592857D01*
X95378571Y81450000D01*
X95450000Y81378571D01*
X95592857Y81307143D01*
X96092857Y81307143D01*
D11*
X12361905Y36747619D02*
X12361905Y37747619D01*
X12028571Y37033333D01*
X11695238Y37747619D01*
X11695238Y36747619D01*
X11219048Y37747619D02*
X11219048Y36938095D01*
X11171429Y36842857D01*
X11123810Y36795238D01*
X11028572Y36747619D01*
X10838095Y36747619D01*
X10742857Y36795238D01*
X10695238Y36842857D01*
X10647619Y36938095D01*
X10647619Y37747619D01*
X10314286Y37747619D02*
X9742857Y37747619D01*
X10028572Y36747619D02*
X10028572Y37747619D01*
X9409524Y37271429D02*
X9076190Y37271429D01*
X8933333Y36747619D02*
X9409524Y36747619D01*
X9409524Y37747619D01*
X8933333Y37747619D01*
X10590476Y39147619D02*
X10923810Y39623810D01*
X11161905Y39147619D02*
X11161905Y40147619D01*
X10780952Y40147619D01*
X10685714Y40100000D01*
X10638095Y40052381D01*
X10590476Y39957143D01*
X10590476Y39814286D01*
X10638095Y39719048D01*
X10685714Y39671429D01*
X10780952Y39623810D01*
X11161905Y39623810D01*
X10209524Y39195238D02*
X10066667Y39147619D01*
X9828571Y39147619D01*
X9733333Y39195238D01*
X9685714Y39242857D01*
X9638095Y39338095D01*
X9638095Y39433333D01*
X9685714Y39528571D01*
X9733333Y39576190D01*
X9828571Y39623810D01*
X10019048Y39671429D01*
X10114286Y39719048D01*
X10161905Y39766667D01*
X10209524Y39861905D01*
X10209524Y39957143D01*
X10161905Y40052381D01*
X10114286Y40100000D01*
X10019048Y40147619D01*
X9780952Y40147619D01*
X9638095Y40100000D01*
X9352381Y40147619D02*
X8780952Y40147619D01*
X9066667Y39147619D02*
X9066667Y40147619D01*
X10590476Y42042857D02*
X10638095Y41995238D01*
X10780952Y41947619D01*
X10876190Y41947619D01*
X11019048Y41995238D01*
X11114286Y42090476D01*
X11161905Y42185714D01*
X11209524Y42376190D01*
X11209524Y42519048D01*
X11161905Y42709524D01*
X11114286Y42804762D01*
X11019048Y42900000D01*
X10876190Y42947619D01*
X10780952Y42947619D01*
X10638095Y42900000D01*
X10590476Y42852381D01*
X10209524Y41995238D02*
X10066667Y41947619D01*
X9828571Y41947619D01*
X9733333Y41995238D01*
X9685714Y42042857D01*
X9638095Y42138095D01*
X9638095Y42233333D01*
X9685714Y42328571D01*
X9733333Y42376190D01*
X9828571Y42423810D01*
X10019048Y42471429D01*
X10114286Y42519048D01*
X10161905Y42566667D01*
X10209524Y42661905D01*
X10209524Y42757143D01*
X10161905Y42852381D01*
X10114286Y42900000D01*
X10019048Y42947619D01*
X9780952Y42947619D01*
X9638095Y42900000D01*
X8685714Y41947619D02*
X9257143Y41947619D01*
X8971429Y41947619D02*
X8971429Y42947619D01*
X9066667Y42804762D01*
X9161905Y42709524D01*
X9257143Y42661905D01*
X11961905Y44347619D02*
X11961905Y45347619D01*
X11628571Y44633333D01*
X11295238Y45347619D01*
X11295238Y44347619D01*
X10628572Y45347619D02*
X10438095Y45347619D01*
X10342857Y45300000D01*
X10247619Y45204762D01*
X10200000Y45014286D01*
X10200000Y44680952D01*
X10247619Y44490476D01*
X10342857Y44395238D01*
X10438095Y44347619D01*
X10628572Y44347619D01*
X10723810Y44395238D01*
X10819048Y44490476D01*
X10866667Y44680952D01*
X10866667Y45014286D01*
X10819048Y45204762D01*
X10723810Y45300000D01*
X10628572Y45347619D01*
X9819048Y44395238D02*
X9676191Y44347619D01*
X9438095Y44347619D01*
X9342857Y44395238D01*
X9295238Y44442857D01*
X9247619Y44538095D01*
X9247619Y44633333D01*
X9295238Y44728571D01*
X9342857Y44776190D01*
X9438095Y44823810D01*
X9628572Y44871429D01*
X9723810Y44919048D01*
X9771429Y44966667D01*
X9819048Y45061905D01*
X9819048Y45157143D01*
X9771429Y45252381D01*
X9723810Y45300000D01*
X9628572Y45347619D01*
X9390476Y45347619D01*
X9247619Y45300000D01*
X8819048Y44347619D02*
X8819048Y45347619D01*
X12209524Y46995238D02*
X12066667Y46947619D01*
X11828571Y46947619D01*
X11733333Y46995238D01*
X11685714Y47042857D01*
X11638095Y47138095D01*
X11638095Y47233333D01*
X11685714Y47328571D01*
X11733333Y47376190D01*
X11828571Y47423810D01*
X12019048Y47471429D01*
X12114286Y47519048D01*
X12161905Y47566667D01*
X12209524Y47661905D01*
X12209524Y47757143D01*
X12161905Y47852381D01*
X12114286Y47900000D01*
X12019048Y47947619D01*
X11780952Y47947619D01*
X11638095Y47900000D01*
X10638095Y47042857D02*
X10685714Y46995238D01*
X10828571Y46947619D01*
X10923809Y46947619D01*
X11066667Y46995238D01*
X11161905Y47090476D01*
X11209524Y47185714D01*
X11257143Y47376190D01*
X11257143Y47519048D01*
X11209524Y47709524D01*
X11161905Y47804762D01*
X11066667Y47900000D01*
X10923809Y47947619D01*
X10828571Y47947619D01*
X10685714Y47900000D01*
X10638095Y47852381D01*
X9733333Y46947619D02*
X10209524Y46947619D01*
X10209524Y47947619D01*
X9400000Y46947619D02*
X9400000Y47947619D01*
X8828571Y46947619D02*
X9257143Y47519048D01*
X8828571Y47947619D02*
X9400000Y47376190D01*
X11961905Y49547619D02*
X11961905Y50547619D01*
X11628571Y49833333D01*
X11295238Y50547619D01*
X11295238Y49547619D01*
X10819048Y49547619D02*
X10819048Y50547619D01*
X10390477Y49595238D02*
X10247620Y49547619D01*
X10009524Y49547619D01*
X9914286Y49595238D01*
X9866667Y49642857D01*
X9819048Y49738095D01*
X9819048Y49833333D01*
X9866667Y49928571D01*
X9914286Y49976190D01*
X10009524Y50023810D01*
X10200001Y50071429D01*
X10295239Y50119048D01*
X10342858Y50166667D01*
X10390477Y50261905D01*
X10390477Y50357143D01*
X10342858Y50452381D01*
X10295239Y50500000D01*
X10200001Y50547619D01*
X9961905Y50547619D01*
X9819048Y50500000D01*
X9200001Y50547619D02*
X9009524Y50547619D01*
X8914286Y50500000D01*
X8819048Y50404762D01*
X8771429Y50214286D01*
X8771429Y49880952D01*
X8819048Y49690476D01*
X8914286Y49595238D01*
X9009524Y49547619D01*
X9200001Y49547619D01*
X9295239Y49595238D01*
X9390477Y49690476D01*
X9438096Y49880952D01*
X9438096Y50214286D01*
X9390477Y50404762D01*
X9295239Y50500000D01*
X9200001Y50547619D01*
D12*
X74278571Y13442857D02*
X72778571Y13442857D01*
X73850000Y12942857D01*
X72778571Y12442857D01*
X74278571Y12442857D01*
X72778571Y11728571D02*
X73992857Y11728571D01*
X74135714Y11657143D01*
X74207143Y11585714D01*
X74278571Y11442857D01*
X74278571Y11157143D01*
X74207143Y11014285D01*
X74135714Y10942857D01*
X73992857Y10871428D01*
X72778571Y10871428D01*
X72778571Y10371428D02*
X72778571Y9514285D01*
X74278571Y9942856D02*
X72778571Y9942856D01*
X73492857Y9014285D02*
X73492857Y8514285D01*
X74278571Y8299999D02*
X74278571Y9014285D01*
X72778571Y9014285D01*
X72778571Y8299999D01*
X71678571Y10985714D02*
X70964286Y11485714D01*
X71678571Y11842857D02*
X70178571Y11842857D01*
X70178571Y11271429D01*
X70250000Y11128571D01*
X70321429Y11057143D01*
X70464286Y10985714D01*
X70678571Y10985714D01*
X70821429Y11057143D01*
X70892857Y11128571D01*
X70964286Y11271429D01*
X70964286Y11842857D01*
X71607143Y10414286D02*
X71678571Y10200000D01*
X71678571Y9842857D01*
X71607143Y9700000D01*
X71535714Y9628571D01*
X71392857Y9557143D01*
X71250000Y9557143D01*
X71107143Y9628571D01*
X71035714Y9700000D01*
X70964286Y9842857D01*
X70892857Y10128571D01*
X70821429Y10271429D01*
X70750000Y10342857D01*
X70607143Y10414286D01*
X70464286Y10414286D01*
X70321429Y10342857D01*
X70250000Y10271429D01*
X70178571Y10128571D01*
X70178571Y9771429D01*
X70250000Y9557143D01*
X70178571Y9128572D02*
X70178571Y8271429D01*
X71678571Y8700000D02*
X70178571Y8700000D01*
X69007143Y11914286D02*
X69078571Y11700000D01*
X69078571Y11342857D01*
X69007143Y11200000D01*
X68935714Y11128571D01*
X68792857Y11057143D01*
X68650000Y11057143D01*
X68507143Y11128571D01*
X68435714Y11200000D01*
X68364286Y11342857D01*
X68292857Y11628571D01*
X68221429Y11771429D01*
X68150000Y11842857D01*
X68007143Y11914286D01*
X67864286Y11914286D01*
X67721429Y11842857D01*
X67650000Y11771429D01*
X67578571Y11628571D01*
X67578571Y11271429D01*
X67650000Y11057143D01*
X68935714Y9557143D02*
X69007143Y9628572D01*
X69078571Y9842858D01*
X69078571Y9985715D01*
X69007143Y10200000D01*
X68864286Y10342858D01*
X68721429Y10414286D01*
X68435714Y10485715D01*
X68221429Y10485715D01*
X67935714Y10414286D01*
X67792857Y10342858D01*
X67650000Y10200000D01*
X67578571Y9985715D01*
X67578571Y9842858D01*
X67650000Y9628572D01*
X67721429Y9557143D01*
X69078571Y8200000D02*
X69078571Y8914286D01*
X67578571Y8914286D01*
X66407143Y11914286D02*
X66478571Y11700000D01*
X66478571Y11342857D01*
X66407143Y11200000D01*
X66335714Y11128571D01*
X66192857Y11057143D01*
X66050000Y11057143D01*
X65907143Y11128571D01*
X65835714Y11200000D01*
X65764286Y11342857D01*
X65692857Y11628571D01*
X65621429Y11771429D01*
X65550000Y11842857D01*
X65407143Y11914286D01*
X65264286Y11914286D01*
X65121429Y11842857D01*
X65050000Y11771429D01*
X64978571Y11628571D01*
X64978571Y11271429D01*
X65050000Y11057143D01*
X66478571Y10414286D02*
X64978571Y10414286D01*
X64978571Y10057143D01*
X65050000Y9842858D01*
X65192857Y9700000D01*
X65335714Y9628572D01*
X65621429Y9557143D01*
X65835714Y9557143D01*
X66121429Y9628572D01*
X66264286Y9700000D01*
X66407143Y9842858D01*
X66478571Y10057143D01*
X66478571Y10414286D01*
X66050000Y8985715D02*
X66050000Y8271429D01*
X66478571Y9128572D02*
X64978571Y8628572D01*
X66478571Y8128572D01*
X64078571Y6842857D02*
X62578571Y6842857D01*
X62721429Y6200000D02*
X62650000Y6128571D01*
X62578571Y5985714D01*
X62578571Y5628571D01*
X62650000Y5485714D01*
X62721429Y5414285D01*
X62864286Y5342857D01*
X63007143Y5342857D01*
X63221429Y5414285D01*
X64078571Y6271428D01*
X64078571Y5342857D01*
X63935714Y3842857D02*
X64007143Y3914286D01*
X64078571Y4128572D01*
X64078571Y4271429D01*
X64007143Y4485714D01*
X63864286Y4628572D01*
X63721429Y4700000D01*
X63435714Y4771429D01*
X63221429Y4771429D01*
X62935714Y4700000D01*
X62792857Y4628572D01*
X62650000Y4485714D01*
X62578571Y4271429D01*
X62578571Y4128572D01*
X62650000Y3914286D01*
X62721429Y3842857D01*
X56078571Y6842857D02*
X54578571Y6842857D01*
X54721429Y6200000D02*
X54650000Y6128571D01*
X54578571Y5985714D01*
X54578571Y5628571D01*
X54650000Y5485714D01*
X54721429Y5414285D01*
X54864286Y5342857D01*
X55007143Y5342857D01*
X55221429Y5414285D01*
X56078571Y6271428D01*
X56078571Y5342857D01*
X56007143Y4771429D02*
X56078571Y4557143D01*
X56078571Y4200000D01*
X56007143Y4057143D01*
X55935714Y3985714D01*
X55792857Y3914286D01*
X55650000Y3914286D01*
X55507143Y3985714D01*
X55435714Y4057143D01*
X55364286Y4200000D01*
X55292857Y4485714D01*
X55221429Y4628572D01*
X55150000Y4700000D01*
X55007143Y4771429D01*
X54864286Y4771429D01*
X54721429Y4700000D01*
X54650000Y4628572D01*
X54578571Y4485714D01*
X54578571Y4128572D01*
X54650000Y3914286D01*
X33478571Y6842857D02*
X31978571Y6842857D01*
X32121429Y6200000D02*
X32050000Y6128571D01*
X31978571Y5985714D01*
X31978571Y5628571D01*
X32050000Y5485714D01*
X32121429Y5414285D01*
X32264286Y5342857D01*
X32407143Y5342857D01*
X32621429Y5414285D01*
X33478571Y6271428D01*
X33478571Y5342857D01*
X33407143Y4771429D02*
X33478571Y4557143D01*
X33478571Y4200000D01*
X33407143Y4057143D01*
X33335714Y3985714D01*
X33192857Y3914286D01*
X33050000Y3914286D01*
X32907143Y3985714D01*
X32835714Y4057143D01*
X32764286Y4200000D01*
X32692857Y4485714D01*
X32621429Y4628572D01*
X32550000Y4700000D01*
X32407143Y4771429D01*
X32264286Y4771429D01*
X32121429Y4700000D01*
X32050000Y4628572D01*
X31978571Y4485714D01*
X31978571Y4128572D01*
X32050000Y3914286D01*
X90885713Y91896429D02*
X91599999Y91896429D01*
X91671428Y91182143D01*
X91599999Y91253571D01*
X91457142Y91325000D01*
X91099999Y91325000D01*
X90957142Y91253571D01*
X90885713Y91182143D01*
X90814285Y91039286D01*
X90814285Y90682143D01*
X90885713Y90539286D01*
X90957142Y90467857D01*
X91099999Y90396429D01*
X91457142Y90396429D01*
X91599999Y90467857D01*
X91671428Y90539286D01*
X90385714Y91896429D02*
X89885714Y90396429D01*
X89385714Y91896429D01*
X88885714Y90967857D02*
X87742857Y90967857D01*
X86242857Y90396429D02*
X87100000Y90396429D01*
X86671428Y90396429D02*
X86671428Y91896429D01*
X86814285Y91682143D01*
X86957143Y91539286D01*
X87100000Y91467857D01*
X84885714Y91896429D02*
X85600000Y91896429D01*
X85671429Y91182143D01*
X85600000Y91253571D01*
X85457143Y91325000D01*
X85100000Y91325000D01*
X84957143Y91253571D01*
X84885714Y91182143D01*
X84814286Y91039286D01*
X84814286Y90682143D01*
X84885714Y90539286D01*
X84957143Y90467857D01*
X85100000Y90396429D01*
X85457143Y90396429D01*
X85600000Y90467857D01*
X85671429Y90539286D01*
X84385715Y91896429D02*
X83885715Y90396429D01*
X83385715Y91896429D01*
X92385714Y87846429D02*
X92385714Y89346429D01*
X91885714Y88275000D01*
X91385714Y89346429D01*
X91385714Y87846429D01*
X90028571Y87846429D02*
X90028571Y88632143D01*
X90100000Y88775000D01*
X90242857Y88846429D01*
X90528571Y88846429D01*
X90671428Y88775000D01*
X90028571Y87917857D02*
X90171428Y87846429D01*
X90528571Y87846429D01*
X90671428Y87917857D01*
X90742857Y88060714D01*
X90742857Y88203571D01*
X90671428Y88346429D01*
X90528571Y88417857D01*
X90171428Y88417857D01*
X90028571Y88489286D01*
X89457142Y87846429D02*
X88671428Y88846429D01*
X89457142Y88846429D02*
X88671428Y87846429D01*
X86171428Y87846429D02*
X87028571Y87846429D01*
X86599999Y87846429D02*
X86599999Y89346429D01*
X86742856Y89132143D01*
X86885714Y88989286D01*
X87028571Y88917857D01*
X85528571Y87989286D02*
X85457143Y87917857D01*
X85528571Y87846429D01*
X85600000Y87917857D01*
X85528571Y87989286D01*
X85528571Y87846429D01*
X84099999Y89346429D02*
X84814285Y89346429D01*
X84885714Y88632143D01*
X84814285Y88703571D01*
X84671428Y88775000D01*
X84314285Y88775000D01*
X84171428Y88703571D01*
X84099999Y88632143D01*
X84028571Y88489286D01*
X84028571Y88132143D01*
X84099999Y87989286D01*
X84171428Y87917857D01*
X84314285Y87846429D01*
X84671428Y87846429D01*
X84814285Y87917857D01*
X84885714Y87989286D01*
X83457143Y88275000D02*
X82742857Y88275000D01*
X83600000Y87846429D02*
X83100000Y89346429D01*
X82600000Y87846429D01*
D11*
X9600000Y99200000D02*
X9600000Y98400000D01*
X12200000Y99200000D02*
X12200000Y98400000D01*
X14600000Y99200000D02*
X14600000Y98400000D01*
X17200000Y99200000D02*
X17200000Y98400000D01*
X22400000Y99200000D02*
X22400000Y98400000D01*
X24800000Y99200000D02*
X24800000Y98400000D01*
X27400000Y99200000D02*
X27400000Y98400000D01*
X30000000Y99200000D02*
X30000000Y98400000D01*
X9600000Y99200000D02*
X18000000Y99200000D01*
X21600000Y99200000D02*
X30000000Y99200000D01*
X20561904Y99700000D02*
X20657142Y99747619D01*
X20799999Y99747619D01*
X20942857Y99700000D01*
X21038095Y99604762D01*
X21085714Y99509524D01*
X21133333Y99319048D01*
X21133333Y99176190D01*
X21085714Y98985714D01*
X21038095Y98890476D01*
X20942857Y98795238D01*
X20799999Y98747619D01*
X20704761Y98747619D01*
X20561904Y98795238D01*
X20514285Y98842857D01*
X20514285Y99176190D01*
X20704761Y99176190D01*
X20085714Y98747619D02*
X20085714Y99747619D01*
X19514285Y98747619D01*
X19514285Y99747619D01*
X19038095Y98747619D02*
X19038095Y99747619D01*
X18800000Y99747619D01*
X18657142Y99700000D01*
X18561904Y99604762D01*
X18514285Y99509524D01*
X18466666Y99319048D01*
X18466666Y99176190D01*
X18514285Y98985714D01*
X18561904Y98890476D01*
X18657142Y98795238D01*
X18800000Y98747619D01*
X19038095Y98747619D01*
D12*
X8878571Y93307142D02*
X8878571Y92378571D01*
X9450000Y92878571D01*
X9450000Y92664285D01*
X9521429Y92521428D01*
X9592857Y92449999D01*
X9735714Y92378571D01*
X10092857Y92378571D01*
X10235714Y92449999D01*
X10307143Y92521428D01*
X10378571Y92664285D01*
X10378571Y93092857D01*
X10307143Y93235714D01*
X10235714Y93307142D01*
X8878571Y91950000D02*
X10378571Y91450000D01*
X8878571Y90950000D01*
X8878571Y90592857D02*
X8878571Y89664286D01*
X9450000Y90164286D01*
X9450000Y89950000D01*
X9521429Y89807143D01*
X9592857Y89735714D01*
X9735714Y89664286D01*
X10092857Y89664286D01*
X10235714Y89735714D01*
X10307143Y89807143D01*
X10378571Y89950000D01*
X10378571Y90378572D01*
X10307143Y90521429D01*
X10235714Y90592857D01*
X29714283Y92871429D02*
X29714283Y91871429D01*
X30071426Y93442857D02*
X30428569Y92371429D01*
X29499997Y92371429D01*
X27071426Y93371429D02*
X27785712Y93371429D01*
X27857141Y92657143D01*
X27785712Y92728571D01*
X27642855Y92800000D01*
X27285712Y92800000D01*
X27142855Y92728571D01*
X27071426Y92657143D01*
X26999998Y92514286D01*
X26999998Y92157143D01*
X27071426Y92014286D01*
X27142855Y91942857D01*
X27285712Y91871429D01*
X27642855Y91871429D01*
X27785712Y91942857D01*
X27857141Y92014286D01*
X24571427Y93371429D02*
X24857141Y93371429D01*
X24999998Y93300000D01*
X25071427Y93228571D01*
X25214284Y93014286D01*
X25285713Y92728571D01*
X25285713Y92157143D01*
X25214284Y92014286D01*
X25142856Y91942857D01*
X24999998Y91871429D01*
X24714284Y91871429D01*
X24571427Y91942857D01*
X24499998Y92014286D01*
X24428570Y92157143D01*
X24428570Y92514286D01*
X24499998Y92657143D01*
X24571427Y92728571D01*
X24714284Y92800000D01*
X24999998Y92800000D01*
X25142856Y92728571D01*
X25214284Y92657143D01*
X25285713Y92514286D01*
X22785713Y93371429D02*
X21785713Y93371429D01*
X22428570Y91871429D01*
X19785714Y93371429D02*
X19642857Y93371429D01*
X19500000Y93300000D01*
X19428571Y93228571D01*
X19357142Y93085714D01*
X19285714Y92800000D01*
X19285714Y92442857D01*
X19357142Y92157143D01*
X19428571Y92014286D01*
X19500000Y91942857D01*
X19642857Y91871429D01*
X19785714Y91871429D01*
X19928571Y91942857D01*
X20000000Y92014286D01*
X20071428Y92157143D01*
X20142857Y92442857D01*
X20142857Y92800000D01*
X20071428Y93085714D01*
X20000000Y93228571D01*
X19928571Y93300000D01*
X19785714Y93371429D01*
X16714286Y91871429D02*
X17571429Y91871429D01*
X17142857Y91871429D02*
X17142857Y93371429D01*
X17285714Y93157143D01*
X17428572Y93014286D01*
X17571429Y92942857D01*
X15000001Y93228571D02*
X14928572Y93300000D01*
X14785715Y93371429D01*
X14428572Y93371429D01*
X14285715Y93300000D01*
X14214286Y93228571D01*
X14142858Y93085714D01*
X14142858Y92942857D01*
X14214286Y92728571D01*
X15071429Y91871429D01*
X14142858Y91871429D01*
X12500001Y93371429D02*
X11571430Y93371429D01*
X12071430Y92800000D01*
X11857144Y92800000D01*
X11714287Y92728571D01*
X11642858Y92657143D01*
X11571430Y92514286D01*
X11571430Y92157143D01*
X11642858Y92014286D01*
X11714287Y91942857D01*
X11857144Y91871429D01*
X12285716Y91871429D01*
X12428573Y91942857D01*
X12500001Y92014286D01*
D11*
X26542857Y90833333D02*
X26066666Y90833333D01*
X26638095Y90547619D02*
X26304762Y91547619D01*
X25971428Y90547619D01*
X25209523Y91214286D02*
X25209523Y90547619D01*
X25638095Y91214286D02*
X25638095Y90690476D01*
X25590476Y90595238D01*
X25495238Y90547619D01*
X25352380Y90547619D01*
X25257142Y90595238D01*
X25209523Y90642857D01*
X24828571Y90547619D02*
X24304761Y91214286D01*
X24828571Y91214286D02*
X24304761Y90547619D01*
X23923809Y90547619D02*
X23923809Y91214286D01*
X23923809Y91547619D02*
X23971428Y91500000D01*
X23923809Y91452381D01*
X23876190Y91500000D01*
X23923809Y91547619D01*
X23923809Y91452381D01*
X23304762Y90547619D02*
X23400000Y90595238D01*
X23447619Y90690476D01*
X23447619Y91547619D01*
X22923809Y90547619D02*
X22923809Y91214286D01*
X22923809Y91547619D02*
X22971428Y91500000D01*
X22923809Y91452381D01*
X22876190Y91500000D01*
X22923809Y91547619D01*
X22923809Y91452381D01*
X22019047Y90547619D02*
X22019047Y91071429D01*
X22066666Y91166667D01*
X22161904Y91214286D01*
X22352381Y91214286D01*
X22447619Y91166667D01*
X22019047Y90595238D02*
X22114285Y90547619D01*
X22352381Y90547619D01*
X22447619Y90595238D01*
X22495238Y90690476D01*
X22495238Y90785714D01*
X22447619Y90880952D01*
X22352381Y90928571D01*
X22114285Y90928571D01*
X22019047Y90976190D01*
X21542857Y90547619D02*
X21542857Y91214286D01*
X21542857Y91023810D02*
X21495238Y91119048D01*
X21447619Y91166667D01*
X21352381Y91214286D01*
X21257142Y91214286D01*
X21019047Y91214286D02*
X20780952Y90547619D01*
X20542856Y91214286D02*
X20780952Y90547619D01*
X20876190Y90309524D01*
X20923809Y90261905D01*
X21019047Y90214286D01*
X19399999Y90547619D02*
X19399999Y91547619D01*
X18209523Y91595238D02*
X19066666Y90309524D01*
X17685714Y91547619D02*
X17495237Y91547619D01*
X17399999Y91500000D01*
X17304761Y91404762D01*
X17257142Y91214286D01*
X17257142Y90880952D01*
X17304761Y90690476D01*
X17399999Y90595238D01*
X17495237Y90547619D01*
X17685714Y90547619D01*
X17780952Y90595238D01*
X17876190Y90690476D01*
X17923809Y90880952D01*
X17923809Y91214286D01*
X17876190Y91404762D01*
X17780952Y91500000D01*
X17685714Y91547619D01*
X25733333Y89847619D02*
X25114285Y89847619D01*
X25447619Y89466667D01*
X25304761Y89466667D01*
X25209523Y89419048D01*
X25161904Y89371429D01*
X25114285Y89276190D01*
X25114285Y89038095D01*
X25161904Y88942857D01*
X25209523Y88895238D01*
X25304761Y88847619D01*
X25590476Y88847619D01*
X25685714Y88895238D01*
X25733333Y88942857D01*
X24685714Y88942857D02*
X24638095Y88895238D01*
X24685714Y88847619D01*
X24733333Y88895238D01*
X24685714Y88942857D01*
X24685714Y88847619D01*
X24304762Y89847619D02*
X23685714Y89847619D01*
X24019048Y89466667D01*
X23876190Y89466667D01*
X23780952Y89419048D01*
X23733333Y89371429D01*
X23685714Y89276190D01*
X23685714Y89038095D01*
X23733333Y88942857D01*
X23780952Y88895238D01*
X23876190Y88847619D01*
X24161905Y88847619D01*
X24257143Y88895238D01*
X24304762Y88942857D01*
X23400000Y89847619D02*
X23066667Y88847619D01*
X22733333Y89847619D01*
X21161904Y88847619D02*
X21638095Y88847619D01*
X21638095Y89847619D01*
X20685714Y88847619D02*
X20780952Y88895238D01*
X20828571Y88942857D01*
X20876190Y89038095D01*
X20876190Y89323810D01*
X20828571Y89419048D01*
X20780952Y89466667D01*
X20685714Y89514286D01*
X20542856Y89514286D01*
X20447618Y89466667D01*
X20399999Y89419048D01*
X20352380Y89323810D01*
X20352380Y89038095D01*
X20399999Y88942857D01*
X20447618Y88895238D01*
X20542856Y88847619D01*
X20685714Y88847619D01*
X19495237Y89514286D02*
X19495237Y88704762D01*
X19542856Y88609524D01*
X19590475Y88561905D01*
X19685714Y88514286D01*
X19828571Y88514286D01*
X19923809Y88561905D01*
X19495237Y88895238D02*
X19590475Y88847619D01*
X19780952Y88847619D01*
X19876190Y88895238D01*
X19923809Y88942857D01*
X19971428Y89038095D01*
X19971428Y89323810D01*
X19923809Y89419048D01*
X19876190Y89466667D01*
X19780952Y89514286D01*
X19590475Y89514286D01*
X19495237Y89466667D01*
X19019047Y88847619D02*
X19019047Y89514286D01*
X19019047Y89847619D02*
X19066666Y89800000D01*
X19019047Y89752381D01*
X18971428Y89800000D01*
X19019047Y89847619D01*
X19019047Y89752381D01*
X18114285Y88895238D02*
X18209523Y88847619D01*
X18400000Y88847619D01*
X18495238Y88895238D01*
X18542857Y88942857D01*
X18590476Y89038095D01*
X18590476Y89323810D01*
X18542857Y89419048D01*
X18495238Y89466667D01*
X18400000Y89514286D01*
X18209523Y89514286D01*
X18114285Y89466667D01*
D12*
X88028572Y93507143D02*
X89171429Y93507143D01*
X85028572Y93507143D02*
X86171429Y93507143D01*
X85600000Y94078571D02*
X85600000Y92935714D01*
D13*
X0Y100000000D02*
X100000000Y100000000D01*
X15000000Y0D02*
X0Y0D01*
X100000000Y0D02*
X15000000Y0D01*
D14*
X86685714Y70082143D02*
X86457143Y70082143D01*
X86342857Y70025000D01*
X86228571Y69910714D01*
X86171429Y69682143D01*
X86171429Y69282143D01*
X86228571Y69053571D01*
X86342857Y68939286D01*
X86457143Y68882143D01*
X86685714Y68882143D01*
X86800000Y68939286D01*
X86914286Y69053571D01*
X86971429Y69282143D01*
X86971429Y69682143D01*
X86914286Y69910714D01*
X86800000Y70025000D01*
X86685714Y70082143D01*
X85657143Y69682143D02*
X85657143Y68482143D01*
X85657143Y69625000D02*
X85542857Y69682143D01*
X85314286Y69682143D01*
X85200000Y69625000D01*
X85142857Y69567857D01*
X85085714Y69453571D01*
X85085714Y69110714D01*
X85142857Y68996429D01*
X85200000Y68939286D01*
X85314286Y68882143D01*
X85542857Y68882143D01*
X85657143Y68939286D01*
X84114286Y68939286D02*
X84228572Y68882143D01*
X84457143Y68882143D01*
X84571429Y68939286D01*
X84628572Y69053571D01*
X84628572Y69510714D01*
X84571429Y69625000D01*
X84457143Y69682143D01*
X84228572Y69682143D01*
X84114286Y69625000D01*
X84057143Y69510714D01*
X84057143Y69396429D01*
X84628572Y69282143D01*
X83542858Y69682143D02*
X83542858Y68882143D01*
X83542858Y69567857D02*
X83485715Y69625000D01*
X83371429Y69682143D01*
X83200001Y69682143D01*
X83085715Y69625000D01*
X83028572Y69510714D01*
X83028572Y68882143D01*
X81542858Y68882143D02*
X81542858Y70082143D01*
X81542858Y69510714D02*
X80857143Y69510714D01*
X80857143Y68882143D02*
X80857143Y70082143D01*
X79771429Y68882143D02*
X79771429Y69510714D01*
X79828572Y69625000D01*
X79942858Y69682143D01*
X80171429Y69682143D01*
X80285715Y69625000D01*
X79771429Y68939286D02*
X79885715Y68882143D01*
X80171429Y68882143D01*
X80285715Y68939286D01*
X80342858Y69053571D01*
X80342858Y69167857D01*
X80285715Y69282143D01*
X80171429Y69339286D01*
X79885715Y69339286D01*
X79771429Y69396429D01*
X79200001Y68882143D02*
X79200001Y69682143D01*
X79200001Y69453571D02*
X79142858Y69567857D01*
X79085715Y69625000D01*
X78971429Y69682143D01*
X78857144Y69682143D01*
X77942858Y68882143D02*
X77942858Y70082143D01*
X77942858Y68939286D02*
X78057144Y68882143D01*
X78285715Y68882143D01*
X78400001Y68939286D01*
X78457144Y68996429D01*
X78514287Y69110714D01*
X78514287Y69453571D01*
X78457144Y69567857D01*
X78400001Y69625000D01*
X78285715Y69682143D01*
X78057144Y69682143D01*
X77942858Y69625000D01*
X77485715Y69682143D02*
X77257144Y68882143D01*
X77028573Y69453571D01*
X76800001Y68882143D01*
X76571430Y69682143D01*
X75600001Y68882143D02*
X75600001Y69510714D01*
X75657144Y69625000D01*
X75771430Y69682143D01*
X76000001Y69682143D01*
X76114287Y69625000D01*
X75600001Y68939286D02*
X75714287Y68882143D01*
X76000001Y68882143D01*
X76114287Y68939286D01*
X76171430Y69053571D01*
X76171430Y69167857D01*
X76114287Y69282143D01*
X76000001Y69339286D01*
X75714287Y69339286D01*
X75600001Y69396429D01*
X75028573Y68882143D02*
X75028573Y69682143D01*
X75028573Y69453571D02*
X74971430Y69567857D01*
X74914287Y69625000D01*
X74800001Y69682143D01*
X74685716Y69682143D01*
X73828573Y68939286D02*
X73942859Y68882143D01*
X74171430Y68882143D01*
X74285716Y68939286D01*
X74342859Y69053571D01*
X74342859Y69510714D01*
X74285716Y69625000D01*
X74171430Y69682143D01*
X73942859Y69682143D01*
X73828573Y69625000D01*
X73771430Y69510714D01*
X73771430Y69396429D01*
X74342859Y69282143D01*
X72342859Y68882143D02*
X72342859Y70082143D01*
X72057144Y70082143D01*
X71885716Y70025000D01*
X71771430Y69910714D01*
X71714287Y69796429D01*
X71657144Y69567857D01*
X71657144Y69396429D01*
X71714287Y69167857D01*
X71771430Y69053571D01*
X71885716Y68939286D01*
X72057144Y68882143D01*
X72342859Y68882143D01*
X71200002Y68939286D02*
X71028573Y68882143D01*
X70742859Y68882143D01*
X70628573Y68939286D01*
X70571430Y68996429D01*
X70514287Y69110714D01*
X70514287Y69225000D01*
X70571430Y69339286D01*
X70628573Y69396429D01*
X70742859Y69453571D01*
X70971430Y69510714D01*
X71085716Y69567857D01*
X71142859Y69625000D01*
X71200002Y69739286D01*
X71200002Y69853571D01*
X71142859Y69967857D01*
X71085716Y70025000D01*
X70971430Y70082143D01*
X70685716Y70082143D01*
X70514287Y70025000D01*
X70000002Y68882143D02*
X70000002Y70082143D01*
X69542859Y70082143D01*
X69428573Y70025000D01*
X69371430Y69967857D01*
X69314287Y69853571D01*
X69314287Y69682143D01*
X69371430Y69567857D01*
X69428573Y69510714D01*
X69542859Y69453571D01*
X70000002Y69453571D01*
X87028571Y67632143D02*
X86800000Y66832143D01*
X86571429Y67403571D01*
X86342857Y66832143D01*
X86114286Y67632143D01*
X85771428Y67632143D02*
X85542857Y66832143D01*
X85314286Y67403571D01*
X85085714Y66832143D01*
X84857143Y67632143D01*
X84514285Y67632143D02*
X84285714Y66832143D01*
X84057143Y67403571D01*
X83828571Y66832143D01*
X83600000Y67632143D01*
X83142857Y66946429D02*
X83085714Y66889286D01*
X83142857Y66832143D01*
X83200000Y66889286D01*
X83142857Y66946429D01*
X83142857Y66832143D01*
X82399999Y66832143D02*
X82514285Y66889286D01*
X82571428Y66946429D01*
X82628571Y67060714D01*
X82628571Y67403571D01*
X82571428Y67517857D01*
X82514285Y67575000D01*
X82399999Y67632143D01*
X82228571Y67632143D01*
X82114285Y67575000D01*
X82057142Y67517857D01*
X81999999Y67403571D01*
X81999999Y67060714D01*
X82057142Y66946429D01*
X82114285Y66889286D01*
X82228571Y66832143D01*
X82399999Y66832143D01*
X81485714Y66832143D02*
X81485714Y68032143D01*
X80971428Y66832143D02*
X80971428Y67460714D01*
X81028571Y67575000D01*
X81142857Y67632143D01*
X81314285Y67632143D01*
X81428571Y67575000D01*
X81485714Y67517857D01*
X79885714Y66832143D02*
X79885714Y68032143D01*
X79885714Y66889286D02*
X80000000Y66832143D01*
X80228571Y66832143D01*
X80342857Y66889286D01*
X80400000Y66946429D01*
X80457143Y67060714D01*
X80457143Y67403571D01*
X80400000Y67517857D01*
X80342857Y67575000D01*
X80228571Y67632143D01*
X80000000Y67632143D01*
X79885714Y67575000D01*
X79371429Y66889286D02*
X79257143Y66832143D01*
X79028571Y66832143D01*
X78914286Y66889286D01*
X78857143Y67003571D01*
X78857143Y67060714D01*
X78914286Y67175000D01*
X79028571Y67232143D01*
X79200000Y67232143D01*
X79314286Y67289286D01*
X79371429Y67403571D01*
X79371429Y67460714D01*
X79314286Y67575000D01*
X79200000Y67632143D01*
X79028571Y67632143D01*
X78914286Y67575000D01*
X78342857Y67632143D02*
X78342857Y66432143D01*
X78342857Y67575000D02*
X78228571Y67632143D01*
X78000000Y67632143D01*
X77885714Y67575000D01*
X77828571Y67517857D01*
X77771428Y67403571D01*
X77771428Y67060714D01*
X77828571Y66946429D01*
X77885714Y66889286D01*
X78000000Y66832143D01*
X78228571Y66832143D01*
X78342857Y66889286D01*
X77257143Y66946429D02*
X77200000Y66889286D01*
X77257143Y66832143D01*
X77314286Y66889286D01*
X77257143Y66946429D01*
X77257143Y66832143D01*
X76514285Y66832143D02*
X76628571Y66889286D01*
X76685714Y66946429D01*
X76742857Y67060714D01*
X76742857Y67403571D01*
X76685714Y67517857D01*
X76628571Y67575000D01*
X76514285Y67632143D01*
X76342857Y67632143D01*
X76228571Y67575000D01*
X76171428Y67517857D01*
X76114285Y67403571D01*
X76114285Y67060714D01*
X76171428Y66946429D01*
X76228571Y66889286D01*
X76342857Y66832143D01*
X76514285Y66832143D01*
X75600000Y66832143D02*
X75600000Y67632143D01*
X75600000Y67403571D02*
X75542857Y67517857D01*
X75485714Y67575000D01*
X75371428Y67632143D01*
X75257143Y67632143D01*
X74342857Y67632143D02*
X74342857Y66660714D01*
X74400000Y66546429D01*
X74457143Y66489286D01*
X74571428Y66432143D01*
X74742857Y66432143D01*
X74857143Y66489286D01*
X74342857Y66889286D02*
X74457143Y66832143D01*
X74685714Y66832143D01*
X74800000Y66889286D01*
X74857143Y66946429D01*
X74914286Y67060714D01*
X74914286Y67403571D01*
X74857143Y67517857D01*
X74800000Y67575000D01*
X74685714Y67632143D01*
X74457143Y67632143D01*
X74342857Y67575000D01*
D12*
X90364285Y97921429D02*
X90364285Y99421429D01*
X89792857Y99421429D01*
X89649999Y99350000D01*
X89578571Y99278571D01*
X89507142Y99135714D01*
X89507142Y98921429D01*
X89578571Y98778571D01*
X89649999Y98707143D01*
X89792857Y98635714D01*
X90364285Y98635714D01*
X88649999Y97921429D02*
X88792857Y97992857D01*
X88864285Y98064286D01*
X88935714Y98207143D01*
X88935714Y98635714D01*
X88864285Y98778571D01*
X88792857Y98850000D01*
X88649999Y98921429D01*
X88435714Y98921429D01*
X88292857Y98850000D01*
X88221428Y98778571D01*
X88149999Y98635714D01*
X88149999Y98207143D01*
X88221428Y98064286D01*
X88292857Y97992857D01*
X88435714Y97921429D01*
X88649999Y97921429D01*
X87649999Y98921429D02*
X87364285Y97921429D01*
X87078571Y98635714D01*
X86792856Y97921429D01*
X86507142Y98921429D01*
X85364285Y97992857D02*
X85507142Y97921429D01*
X85792856Y97921429D01*
X85935713Y97992857D01*
X86007142Y98135714D01*
X86007142Y98707143D01*
X85935713Y98850000D01*
X85792856Y98921429D01*
X85507142Y98921429D01*
X85364285Y98850000D01*
X85292856Y98707143D01*
X85292856Y98564286D01*
X86007142Y98421429D01*
X84649999Y97921429D02*
X84649999Y98921429D01*
X84649999Y98635714D02*
X84578571Y98778571D01*
X84507142Y98850000D01*
X84364285Y98921429D01*
X84221428Y98921429D01*
X98178571Y19742857D02*
X98178571Y18885714D01*
X99678571Y19314285D02*
X98178571Y19314285D01*
X98178571Y18528571D02*
X99678571Y17528571D01*
X98178571Y17528571D02*
X99678571Y18528571D01*
X99678571Y37149999D02*
X98964286Y37649999D01*
X99678571Y38007142D02*
X98178571Y38007142D01*
X98178571Y37435714D01*
X98250000Y37292856D01*
X98321429Y37221428D01*
X98464286Y37149999D01*
X98678571Y37149999D01*
X98821429Y37221428D01*
X98892857Y37292856D01*
X98964286Y37435714D01*
X98964286Y38007142D01*
X98178571Y36649999D02*
X99678571Y35649999D01*
X98178571Y35649999D02*
X99678571Y36649999D01*
D14*
X88399999Y7396429D02*
X88457142Y7339286D01*
X88628571Y7282143D01*
X88742857Y7282143D01*
X88914285Y7339286D01*
X89028571Y7453571D01*
X89085714Y7567857D01*
X89142857Y7796429D01*
X89142857Y7967857D01*
X89085714Y8196429D01*
X89028571Y8310714D01*
X88914285Y8425000D01*
X88742857Y8482143D01*
X88628571Y8482143D01*
X88457142Y8425000D01*
X88399999Y8367857D01*
X87714285Y7282143D02*
X87828571Y7339286D01*
X87885714Y7396429D01*
X87942857Y7510714D01*
X87942857Y7853571D01*
X87885714Y7967857D01*
X87828571Y8025000D01*
X87714285Y8082143D01*
X87542857Y8082143D01*
X87428571Y8025000D01*
X87371428Y7967857D01*
X87314285Y7853571D01*
X87314285Y7510714D01*
X87371428Y7396429D01*
X87428571Y7339286D01*
X87542857Y7282143D01*
X87714285Y7282143D01*
X86800000Y8082143D02*
X86800000Y6882143D01*
X86800000Y8025000D02*
X86685714Y8082143D01*
X86457143Y8082143D01*
X86342857Y8025000D01*
X86285714Y7967857D01*
X86228571Y7853571D01*
X86228571Y7510714D01*
X86285714Y7396429D01*
X86342857Y7339286D01*
X86457143Y7282143D01*
X86685714Y7282143D01*
X86800000Y7339286D01*
X85828571Y8082143D02*
X85542857Y7282143D01*
X85257143Y8082143D02*
X85542857Y7282143D01*
X85657143Y6996429D01*
X85714286Y6939286D01*
X85828571Y6882143D01*
X84800000Y7282143D02*
X84800000Y8082143D01*
X84800000Y7853571D02*
X84742857Y7967857D01*
X84685714Y8025000D01*
X84571428Y8082143D01*
X84457143Y8082143D01*
X84057143Y7282143D02*
X84057143Y8082143D01*
X84057143Y8482143D02*
X84114286Y8425000D01*
X84057143Y8367857D01*
X84000000Y8425000D01*
X84057143Y8482143D01*
X84057143Y8367857D01*
X82971428Y8082143D02*
X82971428Y7110714D01*
X83028571Y6996429D01*
X83085714Y6939286D01*
X83199999Y6882143D01*
X83371428Y6882143D01*
X83485714Y6939286D01*
X82971428Y7339286D02*
X83085714Y7282143D01*
X83314285Y7282143D01*
X83428571Y7339286D01*
X83485714Y7396429D01*
X83542857Y7510714D01*
X83542857Y7853571D01*
X83485714Y7967857D01*
X83428571Y8025000D01*
X83314285Y8082143D01*
X83085714Y8082143D01*
X82971428Y8025000D01*
X82400000Y7282143D02*
X82400000Y8482143D01*
X81885714Y7282143D02*
X81885714Y7910714D01*
X81942857Y8025000D01*
X82057143Y8082143D01*
X82228571Y8082143D01*
X82342857Y8025000D01*
X82400000Y7967857D01*
X81485714Y8082143D02*
X81028571Y8082143D01*
X81314286Y8482143D02*
X81314286Y7453571D01*
X81257143Y7339286D01*
X81142857Y7282143D01*
X81028571Y7282143D01*
X78742857Y8196429D02*
X78857143Y8253571D01*
X79085714Y8253571D01*
X79200000Y8196429D01*
X79314286Y8082143D01*
X79371429Y7967857D01*
X79371429Y7739286D01*
X79314286Y7625000D01*
X79200000Y7510714D01*
X79085714Y7453571D01*
X78857143Y7453571D01*
X78742857Y7510714D01*
X78971429Y8653571D02*
X79257143Y8596429D01*
X79542857Y8425000D01*
X79714286Y8139286D01*
X79771429Y7853571D01*
X79714286Y7567857D01*
X79542857Y7282143D01*
X79257143Y7110714D01*
X78971429Y7053571D01*
X78685714Y7110714D01*
X78400000Y7282143D01*
X78228571Y7567857D01*
X78171429Y7853571D01*
X78228571Y8139286D01*
X78400000Y8425000D01*
X78685714Y8596429D01*
X78971429Y8653571D01*
X91228571Y5232143D02*
X91228571Y6432143D01*
X90771428Y6432143D01*
X90657142Y6375000D01*
X90599999Y6317857D01*
X90542856Y6203571D01*
X90542856Y6032143D01*
X90599999Y5917857D01*
X90657142Y5860714D01*
X90771428Y5803571D01*
X91228571Y5803571D01*
X89514285Y5232143D02*
X89514285Y5860714D01*
X89571428Y5975000D01*
X89685714Y6032143D01*
X89914285Y6032143D01*
X90028571Y5975000D01*
X89514285Y5289286D02*
X89628571Y5232143D01*
X89914285Y5232143D01*
X90028571Y5289286D01*
X90085714Y5403571D01*
X90085714Y5517857D01*
X90028571Y5632143D01*
X89914285Y5689286D01*
X89628571Y5689286D01*
X89514285Y5746429D01*
X88428571Y6032143D02*
X88428571Y5232143D01*
X88942857Y6032143D02*
X88942857Y5403571D01*
X88885714Y5289286D01*
X88771428Y5232143D01*
X88600000Y5232143D01*
X88485714Y5289286D01*
X88428571Y5346429D01*
X87685714Y5232143D02*
X87800000Y5289286D01*
X87857143Y5403571D01*
X87857143Y6432143D01*
X85971429Y6432143D02*
X85971429Y5575000D01*
X86028571Y5403571D01*
X86142857Y5289286D01*
X86314286Y5232143D01*
X86428571Y5232143D01*
X84885714Y5232143D02*
X84885714Y5860714D01*
X84942857Y5975000D01*
X85057143Y6032143D01*
X85285714Y6032143D01*
X85400000Y5975000D01*
X84885714Y5289286D02*
X85000000Y5232143D01*
X85285714Y5232143D01*
X85400000Y5289286D01*
X85457143Y5403571D01*
X85457143Y5517857D01*
X85400000Y5632143D01*
X85285714Y5689286D01*
X85000000Y5689286D01*
X84885714Y5746429D01*
X84314286Y6032143D02*
X84314286Y5232143D01*
X84314286Y5917857D02*
X84257143Y5975000D01*
X84142857Y6032143D01*
X83971429Y6032143D01*
X83857143Y5975000D01*
X83800000Y5860714D01*
X83800000Y5232143D01*
X83228572Y5232143D02*
X83228572Y6032143D01*
X83228572Y6432143D02*
X83285715Y6375000D01*
X83228572Y6317857D01*
X83171429Y6375000D01*
X83228572Y6432143D01*
X83228572Y6317857D01*
X82142857Y5289286D02*
X82257143Y5232143D01*
X82485714Y5232143D01*
X82600000Y5289286D01*
X82657143Y5346429D01*
X82714286Y5460714D01*
X82714286Y5803571D01*
X82657143Y5917857D01*
X82600000Y5975000D01*
X82485714Y6032143D01*
X82257143Y6032143D01*
X82142857Y5975000D01*
X81628572Y5232143D02*
X81628572Y6432143D01*
X81514286Y5689286D02*
X81171429Y5232143D01*
X81171429Y6032143D02*
X81628572Y5575000D01*
X80657143Y5232143D02*
X80657143Y6032143D01*
X80657143Y6432143D02*
X80714286Y6375000D01*
X80657143Y6317857D01*
X80600000Y6375000D01*
X80657143Y6432143D01*
X80657143Y6317857D01*
X79228571Y6317857D02*
X79171428Y6375000D01*
X79057142Y6432143D01*
X78771428Y6432143D01*
X78657142Y6375000D01*
X78599999Y6317857D01*
X78542856Y6203571D01*
X78542856Y6089286D01*
X78599999Y5917857D01*
X79285713Y5232143D01*
X78542856Y5232143D01*
X77799999Y6432143D02*
X77685714Y6432143D01*
X77571428Y6375000D01*
X77514285Y6317857D01*
X77457142Y6203571D01*
X77399999Y5975000D01*
X77399999Y5689286D01*
X77457142Y5460714D01*
X77514285Y5346429D01*
X77571428Y5289286D01*
X77685714Y5232143D01*
X77799999Y5232143D01*
X77914285Y5289286D01*
X77971428Y5346429D01*
X78028571Y5460714D01*
X78085714Y5689286D01*
X78085714Y5975000D01*
X78028571Y6203571D01*
X77971428Y6317857D01*
X77914285Y6375000D01*
X77799999Y6432143D01*
X76257142Y5232143D02*
X76942857Y5232143D01*
X76599999Y5232143D02*
X76599999Y6432143D01*
X76714285Y6260714D01*
X76828571Y6146429D01*
X76942857Y6089286D01*
X75857142Y6432143D02*
X75057142Y6432143D01*
X75571428Y5232143D01*
X81235714Y78132143D02*
X81807143Y78132143D01*
X81807143Y79332143D01*
X80835714Y78132143D02*
X80835714Y78932143D01*
X80835714Y79332143D02*
X80892857Y79275000D01*
X80835714Y79217857D01*
X80778571Y79275000D01*
X80835714Y79332143D01*
X80835714Y79217857D01*
X79749999Y78189286D02*
X79864285Y78132143D01*
X80092856Y78132143D01*
X80207142Y78189286D01*
X80264285Y78246429D01*
X80321428Y78360714D01*
X80321428Y78703571D01*
X80264285Y78817857D01*
X80207142Y78875000D01*
X80092856Y78932143D01*
X79864285Y78932143D01*
X79749999Y78875000D01*
X78778571Y78189286D02*
X78892857Y78132143D01*
X79121428Y78132143D01*
X79235714Y78189286D01*
X79292857Y78303571D01*
X79292857Y78760714D01*
X79235714Y78875000D01*
X79121428Y78932143D01*
X78892857Y78932143D01*
X78778571Y78875000D01*
X78721428Y78760714D01*
X78721428Y78646429D01*
X79292857Y78532143D01*
X78207143Y78932143D02*
X78207143Y78132143D01*
X78207143Y78817857D02*
X78150000Y78875000D01*
X78035714Y78932143D01*
X77864286Y78932143D01*
X77750000Y78875000D01*
X77692857Y78760714D01*
X77692857Y78132143D01*
X77178572Y78189286D02*
X77064286Y78132143D01*
X76835714Y78132143D01*
X76721429Y78189286D01*
X76664286Y78303571D01*
X76664286Y78360714D01*
X76721429Y78475000D01*
X76835714Y78532143D01*
X77007143Y78532143D01*
X77121429Y78589286D01*
X77178572Y78703571D01*
X77178572Y78760714D01*
X77121429Y78875000D01*
X77007143Y78932143D01*
X76835714Y78932143D01*
X76721429Y78875000D01*
X75692857Y78189286D02*
X75807143Y78132143D01*
X76035714Y78132143D01*
X76150000Y78189286D01*
X76207143Y78303571D01*
X76207143Y78760714D01*
X76150000Y78875000D01*
X76035714Y78932143D01*
X75807143Y78932143D01*
X75692857Y78875000D01*
X75635714Y78760714D01*
X75635714Y78646429D01*
X76207143Y78532143D01*
X74607143Y78132143D02*
X74607143Y79332143D01*
X74607143Y78189286D02*
X74721429Y78132143D01*
X74950000Y78132143D01*
X75064286Y78189286D01*
X75121429Y78246429D01*
X75178572Y78360714D01*
X75178572Y78703571D01*
X75121429Y78817857D01*
X75064286Y78875000D01*
X74950000Y78932143D01*
X74721429Y78932143D01*
X74607143Y78875000D01*
X72607143Y78932143D02*
X72607143Y78132143D01*
X73121429Y78932143D02*
X73121429Y78303571D01*
X73064286Y78189286D01*
X72950000Y78132143D01*
X72778572Y78132143D01*
X72664286Y78189286D01*
X72607143Y78246429D01*
X72035715Y78932143D02*
X72035715Y78132143D01*
X72035715Y78817857D02*
X71978572Y78875000D01*
X71864286Y78932143D01*
X71692858Y78932143D01*
X71578572Y78875000D01*
X71521429Y78760714D01*
X71521429Y78132143D01*
X70435715Y78132143D02*
X70435715Y79332143D01*
X70435715Y78189286D02*
X70550001Y78132143D01*
X70778572Y78132143D01*
X70892858Y78189286D01*
X70950001Y78246429D01*
X71007144Y78360714D01*
X71007144Y78703571D01*
X70950001Y78817857D01*
X70892858Y78875000D01*
X70778572Y78932143D01*
X70550001Y78932143D01*
X70435715Y78875000D01*
X69407144Y78189286D02*
X69521430Y78132143D01*
X69750001Y78132143D01*
X69864287Y78189286D01*
X69921430Y78303571D01*
X69921430Y78760714D01*
X69864287Y78875000D01*
X69750001Y78932143D01*
X69521430Y78932143D01*
X69407144Y78875000D01*
X69350001Y78760714D01*
X69350001Y78646429D01*
X69921430Y78532143D01*
X68835716Y78132143D02*
X68835716Y78932143D01*
X68835716Y78703571D02*
X68778573Y78817857D01*
X68721430Y78875000D01*
X68607144Y78932143D01*
X68492859Y78932143D01*
X67350001Y79332143D02*
X66664287Y79332143D01*
X67007144Y78132143D02*
X67007144Y79332143D01*
X66321430Y78475000D02*
X65750001Y78475000D01*
X66435715Y78132143D02*
X66035715Y79332143D01*
X65635715Y78132143D01*
X65235716Y78132143D02*
X65235716Y79332143D01*
X64778573Y79332143D01*
X64664287Y79275000D01*
X64607144Y79217857D01*
X64550001Y79103571D01*
X64550001Y78932143D01*
X64607144Y78817857D01*
X64664287Y78760714D01*
X64778573Y78703571D01*
X65235716Y78703571D01*
X63350001Y78132143D02*
X63750001Y78703571D01*
X64035716Y78132143D02*
X64035716Y79332143D01*
X63578573Y79332143D01*
X63464287Y79275000D01*
X63407144Y79217857D01*
X63350001Y79103571D01*
X63350001Y78932143D01*
X63407144Y78817857D01*
X63464287Y78760714D01*
X63578573Y78703571D01*
X64035716Y78703571D01*
X61692858Y79332143D02*
X61464287Y79332143D01*
X61350001Y79275000D01*
X61235715Y79160714D01*
X61178573Y78932143D01*
X61178573Y78532143D01*
X61235715Y78303571D01*
X61350001Y78189286D01*
X61464287Y78132143D01*
X61692858Y78132143D01*
X61807144Y78189286D01*
X61921430Y78303571D01*
X61978573Y78532143D01*
X61978573Y78932143D01*
X61921430Y79160714D01*
X61807144Y79275000D01*
X61692858Y79332143D01*
X60664287Y78132143D02*
X60664287Y79332143D01*
X60664287Y78760714D02*
X59978572Y78760714D01*
X59978572Y78132143D02*
X59978572Y79332143D01*
X58835715Y78132143D02*
X59407144Y78132143D01*
X59407144Y79332143D01*
X77864285Y76882143D02*
X77635714Y76082143D01*
X77407143Y76653571D01*
X77178571Y76082143D01*
X76950000Y76882143D01*
X76607142Y76882143D02*
X76378571Y76082143D01*
X76150000Y76653571D01*
X75921428Y76082143D01*
X75692857Y76882143D01*
X75349999Y76882143D02*
X75121428Y76082143D01*
X74892857Y76653571D01*
X74664285Y76082143D01*
X74435714Y76882143D01*
X73978571Y76196429D02*
X73921428Y76139286D01*
X73978571Y76082143D01*
X74035714Y76139286D01*
X73978571Y76196429D01*
X73978571Y76082143D01*
X73578570Y76882143D02*
X73121427Y76882143D01*
X73407142Y77282143D02*
X73407142Y76253571D01*
X73349999Y76139286D01*
X73235713Y76082143D01*
X73121427Y76082143D01*
X72207142Y76082143D02*
X72207142Y76710714D01*
X72264285Y76825000D01*
X72378571Y76882143D01*
X72607142Y76882143D01*
X72721428Y76825000D01*
X72207142Y76139286D02*
X72321428Y76082143D01*
X72607142Y76082143D01*
X72721428Y76139286D01*
X72778571Y76253571D01*
X72778571Y76367857D01*
X72721428Y76482143D01*
X72607142Y76539286D01*
X72321428Y76539286D01*
X72207142Y76596429D01*
X71635714Y76882143D02*
X71635714Y75682143D01*
X71635714Y76825000D02*
X71521428Y76882143D01*
X71292857Y76882143D01*
X71178571Y76825000D01*
X71121428Y76767857D01*
X71064285Y76653571D01*
X71064285Y76310714D01*
X71121428Y76196429D01*
X71178571Y76139286D01*
X71292857Y76082143D01*
X71521428Y76082143D01*
X71635714Y76139286D01*
X70550000Y76082143D02*
X70550000Y76882143D01*
X70550000Y76653571D02*
X70492857Y76767857D01*
X70435714Y76825000D01*
X70321428Y76882143D01*
X70207143Y76882143D01*
X69807143Y76196429D02*
X69750000Y76139286D01*
X69807143Y76082143D01*
X69864286Y76139286D01*
X69807143Y76196429D01*
X69807143Y76082143D01*
X69064285Y76082143D02*
X69178571Y76139286D01*
X69235714Y76196429D01*
X69292857Y76310714D01*
X69292857Y76653571D01*
X69235714Y76767857D01*
X69178571Y76825000D01*
X69064285Y76882143D01*
X68892857Y76882143D01*
X68778571Y76825000D01*
X68721428Y76767857D01*
X68664285Y76653571D01*
X68664285Y76310714D01*
X68721428Y76196429D01*
X68778571Y76139286D01*
X68892857Y76082143D01*
X69064285Y76082143D01*
X68150000Y76082143D02*
X68150000Y76882143D01*
X68150000Y76653571D02*
X68092857Y76767857D01*
X68035714Y76825000D01*
X67921428Y76882143D01*
X67807143Y76882143D01*
X66892857Y76882143D02*
X66892857Y75910714D01*
X66950000Y75796429D01*
X67007143Y75739286D01*
X67121428Y75682143D01*
X67292857Y75682143D01*
X67407143Y75739286D01*
X66892857Y76139286D02*
X67007143Y76082143D01*
X67235714Y76082143D01*
X67350000Y76139286D01*
X67407143Y76196429D01*
X67464286Y76310714D01*
X67464286Y76653571D01*
X67407143Y76767857D01*
X67350000Y76825000D01*
X67235714Y76882143D01*
X67007143Y76882143D01*
X66892857Y76825000D01*
X65464286Y77339286D02*
X66492857Y75796429D01*
X64835714Y77282143D02*
X64607143Y77282143D01*
X64492857Y77225000D01*
X64378571Y77110714D01*
X64321429Y76882143D01*
X64321429Y76482143D01*
X64378571Y76253571D01*
X64492857Y76139286D01*
X64607143Y76082143D01*
X64835714Y76082143D01*
X64950000Y76139286D01*
X65064286Y76253571D01*
X65121429Y76482143D01*
X65121429Y76882143D01*
X65064286Y77110714D01*
X64950000Y77225000D01*
X64835714Y77282143D01*
X63807143Y76082143D02*
X63807143Y77282143D01*
X63807143Y76710714D02*
X63121428Y76710714D01*
X63121428Y76082143D02*
X63121428Y77282143D01*
X61978571Y76082143D02*
X62550000Y76082143D01*
X62550000Y77282143D01*
D11*
X10266666Y21547619D02*
X10742857Y21547619D01*
X10742857Y22547619D01*
X9361904Y21547619D02*
X9695238Y22023810D01*
X9933333Y21547619D02*
X9933333Y22547619D01*
X9552380Y22547619D01*
X9457142Y22500000D01*
X9409523Y22452381D01*
X9361904Y22357143D01*
X9361904Y22214286D01*
X9409523Y22119048D01*
X9457142Y22071429D01*
X9552380Y22023810D01*
X9933333Y22023810D01*
X8742857Y22547619D02*
X8647618Y22547619D01*
X8552380Y22500000D01*
X8504761Y22452381D01*
X8457142Y22357143D01*
X8409523Y22166667D01*
X8409523Y21928571D01*
X8457142Y21738095D01*
X8504761Y21642857D01*
X8552380Y21595238D01*
X8647618Y21547619D01*
X8742857Y21547619D01*
X8838095Y21595238D01*
X8885714Y21642857D01*
X8933333Y21738095D01*
X8980952Y21928571D01*
X8980952Y22166667D01*
X8933333Y22357143D01*
X8885714Y22452381D01*
X8838095Y22500000D01*
X8742857Y22547619D01*
D12*
X7642857Y11321429D02*
X7642857Y12821429D01*
X7000000Y12678571D02*
X6928571Y12750000D01*
X6785714Y12821429D01*
X6428571Y12821429D01*
X6285714Y12750000D01*
X6214285Y12678571D01*
X6142857Y12535714D01*
X6142857Y12392857D01*
X6214285Y12178571D01*
X7071428Y11321429D01*
X6142857Y11321429D01*
X5571429Y11392857D02*
X5357143Y11321429D01*
X5000000Y11321429D01*
X4857143Y11392857D01*
X4785714Y11464286D01*
X4714286Y11607143D01*
X4714286Y11750000D01*
X4785714Y11892857D01*
X4857143Y11964286D01*
X5000000Y12035714D01*
X5285714Y12107143D01*
X5428572Y12178571D01*
X5500000Y12250000D01*
X5571429Y12392857D01*
X5571429Y12535714D01*
X5500000Y12678571D01*
X5428572Y12750000D01*
X5285714Y12821429D01*
X4928572Y12821429D01*
X4714286Y12750000D01*
D13*
X100000000Y100000000D02*
X100000000Y0D01*
X0Y0D02*
X0Y100000000D01*
M02*
