M48
;DRILL file {KiCad 4.0.5} date 02/08/17 14:07:07
;FORMAT={-:-/ absolute / metric / decimal}
FMAT,2
METRIC,TZ
T1C0.300
T2C0.500
T3C0.600
T4C0.800
T5C0.900
T6C0.950
T7C1.000
T8C1.600
T9C2.000
T10C2.300
T11C2.000
T12C3.200
%
G90
G05
M71
T1
X4.5Y34.
X13.478Y56.25
X13.54Y49.002
X14.4Y66.4
X14.684Y42.011
X15.Y50.5
X15.027Y45.351
X15.183Y46.501
X15.4Y86.95
X15.4Y68.8
X15.6Y76.45
X15.6Y73.9
X15.68Y77.953
X15.967Y67.85
X15.971Y85.792
X16.2Y12.75
X16.5Y50.75
X16.802Y72.082
X17.25Y33.75
X17.5Y18.05
X17.55Y27.2
X17.55Y22.65
X17.581Y32.518
X17.75Y30.35
X18.242Y73.172
X18.416Y54.507
X19.35Y54.333
X19.66Y30.35
X19.86Y35.7
X19.9Y32.85
X20.25Y46.25
X20.35Y86.95
X20.757Y50.146
X21.644Y55.045
X23.35Y14.901
X23.694Y85.904
X25.4Y57.45
X25.471Y86.556
X25.713Y55.903
X25.983Y44.843
X26.476Y86.956
X26.614Y56.202
X26.724Y85.869
X26.949Y54.846
X27.742Y44.451
X27.95Y17.05
X28.138Y47.281
X28.15Y46.05
X28.206Y48.229
X28.25Y20.75
X28.39Y63.081
X28.496Y55.448
X29.6Y87.55
X29.8Y42.85
X30.506Y42.084
X31.109Y45.199
X32.013Y51.455
X32.501Y40.938
X32.55Y17.05
X33.05Y85.4
X33.4Y38.715
X34.5Y64.5
X34.5Y62.5
X34.593Y55.178
X34.682Y59.9
X35.45Y60.55
X37.051Y54.673
X37.278Y55.933
X37.5Y17.
X37.748Y56.905
X38.375Y60.436
X39.767Y61.21
X39.85Y32.45
X39.991Y39.65
X40.282Y41.049
X40.683Y38.05
X40.894Y60.478
X40.921Y56.91
X41.25Y15.
X41.618Y65.768
X41.702Y38.05
X42.158Y17.484
X42.61Y56.197
X43.455Y17.122
X43.85Y51.7
X43.85Y49.05
X43.9Y50.65
X44.17Y60.4
X45.595Y64.923
X45.596Y63.12
X46.264Y38.107
X46.544Y57.14
X46.6Y45.317
X46.757Y58.065
X47.85Y19.3
X48.Y63.
X48.2Y32.1
X48.25Y33.25
X49.73Y33.2
X50.502Y64.192
X50.843Y59.904
X52.Y39.25
X52.55Y17.55
X52.717Y62.25
X52.73Y33.25
X53.5Y61.25
X55.5Y24.75
X55.737Y43.82
X55.775Y33.105
X55.8Y52.2
X56.4Y49.
X57.Y42.75
X57.Y26.132
X60.434Y33.209
X61.73Y33.25
X65.802Y44.739
X66.751Y23.466
X68.Y23.25
X72.15Y14.75
X72.5Y23.
X73.063Y43.306
X74.483Y43.06
X75.331Y56.357
X76.4Y40.75
X78.75Y44.955
X79.117Y43.773
T2
X1.5Y98.
X1.5Y84.5
X1.5Y74.
X1.5Y56.
X1.5Y43.5
X1.5Y19.
X1.5Y8.5
X1.5Y1.5
X2.Y31.
X7.554Y89.772
X8.15Y35.25
X9.75Y40.85
X9.85Y53.88
X9.85Y51.131
X10.25Y62.5
X10.463Y88.876
X12.Y1.5
X12.3Y13.25
X12.75Y39.
X13.565Y85.321
X14.2Y39.2
X14.883Y33.494
X14.9Y43.7
X15.454Y28.287
X15.584Y41.193
X15.738Y14.183
X15.75Y36.75
X16.369Y65.896
X16.389Y64.66
X16.7Y7.75
X17.481Y35.337
X17.544Y38.299
X17.625Y24.9
X17.625Y20.325
X17.685Y88.098
X18.928Y77.903
X19.747Y27.858
X19.75Y22.15
X20.2Y67.92
X20.75Y85.25
X21.Y1.5
X21.075Y15.05
X21.6Y18.55
X21.815Y59.258
X21.95Y28.6
X22.Y36.
X22.Y20.
X22.35Y88.9
X22.75Y79.85
X23.125Y47.975
X24.1Y79.7
X24.236Y30.634
X24.25Y33.3
X24.25Y18.5
X25.4Y41.5
X25.443Y54.18
X25.5Y39.525
X25.65Y15.075
X26.1Y59.2
X27.474Y33.167
X27.725Y43.3
X28.16Y52.858
X28.342Y88.048
X28.85Y79.75
X28.9Y22.619
X28.919Y35.708
X28.931Y25.302
X29.Y1.5
X29.087Y61.976
X29.25Y30.75
X29.675Y39.55
X29.85Y57.725
X30.399Y86.426
X30.919Y17.258
X31.025Y40.6
X31.075Y52.9
X31.188Y36.608
X31.25Y64.25
X31.275Y55.125
X31.3Y49.875
X31.514Y47.125
X32.506Y34.348
X32.708Y29.768
X32.75Y96.95
X32.75Y92.95
X32.75Y90.9
X32.75Y88.75
X32.84Y22.123
X32.997Y56.567
X33.Y80.5
X34.Y80.5
X34.5Y71.
X34.5Y57.15
X34.55Y44.35
X36.111Y56.302
X36.25Y33.5
X36.25Y16.125
X36.45Y11.65
X36.47Y4.375
X36.5Y1.5
X36.575Y60.473
X36.85Y37.2
X37.525Y41.425
X37.55Y44.325
X38.Y65.
X38.3Y80.05
X38.9Y56.675
X39.75Y20.25
X40.15Y44.3
X40.405Y25.225
X40.5Y74.45
X40.5Y72.25
X40.5Y70.15
X41.Y67.25
X41.25Y55.55
X41.25Y35.25
X41.35Y45.95
X42.65Y73.8
X42.8Y86.376
X42.862Y65.009
X43.Y98.5
X43.Y88.5
X43.467Y47.792
X43.5Y66.9
X43.675Y54.85
X43.982Y45.6
X44.1Y21.
X44.5Y96.5
X44.5Y90.
X44.75Y22.85
X45.045Y39.579
X45.059Y25.288
X45.1Y43.575
X45.443Y66.877
X45.75Y15.05
X45.95Y40.65
X46.Y98.5
X46.2Y69.25
X46.5Y91.
X46.6Y60.75
X46.6Y59.125
X46.825Y43.575
X47.301Y47.216
X47.496Y28.301
X49.175Y44.425
X49.45Y49.87
X49.475Y40.675
X49.709Y38.446
X50.3Y17.3
X50.305Y25.279
X51.1Y36.45
X51.242Y30.403
X51.4Y42.55
X51.7Y93.
X51.718Y27.432
X51.75Y98.3
X52.4Y89.75
X52.733Y29.117
X52.775Y19.425
X52.8Y48.9
X53.Y98.3
X53.22Y80.349
X53.5Y43.75
X53.8Y86.7
X53.827Y25.279
X53.928Y38.91
X54.25Y30.
X54.35Y23.2
X54.464Y80.328
X54.5Y41.55
X54.85Y17.25
X54.9Y67.75
X55.782Y73.75
X56.35Y66.45
X56.6Y98.25
X58.5Y83.25
X58.5Y22.25
X58.8Y87.85
X59.75Y8.55
X59.95Y65.831
X60.05Y1.951
X60.25Y96.5
X60.281Y31.137
X60.598Y17.198
X60.75Y92.35
X60.783Y91.043
X61.25Y84.2
X61.25Y23.75
X61.531Y46.038
X61.846Y10.733
X62.859Y28.713
X62.971Y18.327
X63.Y23.75
X63.Y12.75
X63.18Y16.383
X63.75Y36.5
X64.514Y44.517
X64.55Y92.35
X65.253Y51.525
X66.Y84.25
X66.Y25.75
X66.15Y56.65
X66.25Y86.5
X66.25Y17.25
X66.3Y91.05
X66.39Y72.167
X66.419Y19.572
X66.786Y28.094
X66.909Y15.717
X67.25Y55.35
X67.25Y51.5
X67.75Y34.8
X68.401Y18.768
X68.8Y46.75
X69.Y98.178
X69.4Y58.953
X69.65Y91.05
X69.95Y70.8
X70.25Y73.75
X70.6Y60.25
X70.8Y34.2
X71.2Y19.35
X72.2Y72.8
X72.291Y48.125
X72.738Y58.598
X72.75Y18.
X73.201Y52.741
X73.653Y55.504
X74.476Y40.946
X74.95Y16.55
X75.5Y42.25
X75.75Y22.25
X76.2Y98.
X76.262Y58.629
X76.5Y2.
X77.Y9.
X77.242Y66.354
X77.25Y75.25
X77.75Y49.5
X77.75Y46.8
X77.821Y40.708
X77.865Y27.825
X78.5Y54.25
X79.7Y82.9
X79.75Y92.05
X80.2Y16.15
X80.325Y65.2
X80.85Y63.5
X80.85Y60.75
X80.9Y81.
X81.25Y48.95
X81.5Y55.75
X81.95Y92.25
X81.975Y39.55
X82.202Y43.144
X82.25Y37.75
X82.5Y74.75
X82.8Y10.7
X83.Y60.8
X83.009Y23.52
X83.25Y52.65
X83.4Y63.6
X83.626Y17.034
X84.15Y48.85
X84.9Y8.9
X85.25Y13.8
X85.373Y42.81
X86.649Y25.26
X86.75Y65.35
X86.9Y23.05
X87.525Y34.125
X88.5Y3.6
X89.189Y63.134
X90.Y86.1
X91.592Y58.793
X91.625Y62.715
X92.15Y84.65
X92.2Y86.85
X92.356Y83.37
X92.5Y1.5
X92.6Y54.4
X93.5Y87.9
X93.5Y83.15
X93.95Y91.3
X94.6Y86.85
X94.7Y83.15
X94.8Y56.4
X94.85Y40.4
X95.Y91.2
X95.Y88.2
X96.Y83.15
X96.9Y86.85
X97.3Y83.15
X98.5Y83.15
X98.5Y40.
X98.5Y34.
X98.5Y28.
X98.5Y22.
X98.5Y14.5
X98.5Y7.5
X98.5Y2.
X98.906Y56.449
T3
X35.782Y52.438
X35.782Y50.688
X35.782Y48.938
X37.532Y52.438
X37.532Y48.938
X39.282Y52.438
X39.282Y50.688
X39.282Y48.938
T4
X12.126Y97.278
X12.126Y94.738
X14.666Y97.278
X14.666Y94.738
X16.25Y57.75
X17.206Y97.278
X17.206Y94.738
X18.Y71.
X18.75Y57.75
X19.746Y97.278
X19.746Y94.738
X20.5Y71.
X22.286Y97.29
X22.286Y94.75
X22.88Y43.922
X22.88Y41.422
X24.826Y97.29
X24.826Y94.75
X27.366Y97.29
X27.366Y94.75
X29.906Y97.29
X29.906Y94.75
X39.25Y30.336
X41.75Y30.336
X42.448Y83.392
X42.448Y80.892
X42.956Y94.568
X42.956Y92.068
X47.81Y84.428
X51.31Y84.428
X51.5Y74.25
X51.5Y71.75
X61.Y42.
X61.Y39.5
X61.75Y74.25
X61.75Y71.75
X70.25Y31.94
X70.25Y27.06
X73.75Y91.748
X73.75Y88.248
X74.06Y71.5
X74.61Y83.656
X74.61Y81.156
X78.94Y71.5
X80.Y96.5
X80.Y94.
X88.75Y43.5
X88.75Y41.
T5
X85.31Y61.61
X85.31Y59.07
X85.31Y56.53
X85.31Y53.99
X87.85Y60.34
X87.85Y57.8
X87.85Y55.26
X87.85Y52.72
X97.58Y63.49
X97.58Y53.38
X99.1Y60.95
X99.1Y50.84
T6
X92.75Y77.25
X92.75Y74.75
X94.75Y77.25
X94.75Y74.75
T7
X4.826Y50.038
X4.826Y47.498
X4.826Y44.958
X4.826Y42.418
X4.826Y39.878
X4.826Y37.338
X4.826Y24.638
X4.826Y22.098
X4.826Y19.558
X4.826Y17.018
X4.826Y14.478
X5.334Y85.344
X5.334Y82.804
X5.334Y80.264
X5.334Y77.724
X5.334Y75.184
X5.334Y72.644
X5.334Y70.104
X5.334Y67.564
X5.334Y65.024
X5.334Y62.484
X7.366Y50.038
X7.366Y47.498
X7.366Y44.958
X7.366Y42.418
X7.366Y39.878
X7.366Y37.338
X7.366Y24.638
X7.366Y22.098
X7.366Y19.558
X7.366Y17.018
X7.366Y14.478
X7.874Y85.344
X7.874Y82.804
X7.874Y80.264
X7.874Y77.724
X7.874Y75.184
X7.874Y72.644
X7.874Y70.104
X7.874Y67.564
X7.874Y65.024
X7.874Y62.484
X9.586Y97.29
X9.586Y94.75
X11.4Y5.2
X12.192Y27.686
X12.192Y25.146
X12.192Y22.606
X12.192Y20.066
X20.066Y6.858
X20.066Y4.318
X22.606Y6.858
X22.606Y4.318
X22.86Y11.684
X25.146Y6.858
X25.146Y4.318
X25.4Y11.684
X27.686Y6.858
X27.686Y4.318
X27.94Y11.684
X30.226Y6.858
X30.226Y4.318
X30.48Y11.684
X32.672Y18.832
X35.212Y18.832
X35.49Y97.528
X35.49Y94.988
X35.49Y92.448
X35.49Y89.908
X38.03Y97.528
X38.03Y94.988
X38.03Y92.448
X38.03Y89.908
X42.926Y11.684
X42.926Y6.858
X42.926Y4.318
X45.466Y11.684
X45.466Y6.858
X45.466Y4.318
X46.4Y80.2
X48.006Y11.684
X48.006Y6.858
X48.006Y4.318
X50.546Y11.684
X50.546Y6.858
X50.546Y4.318
X53.086Y6.858
X53.086Y4.318
X65.786Y6.858
X65.786Y4.318
X68.326Y6.858
X68.326Y4.318
X69.088Y37.338
X70.866Y6.858
X70.866Y4.318
X71.628Y37.338
X73.406Y6.858
X73.406Y4.318
X81.026Y1.778
X82.85Y34.09
X82.85Y31.55
X82.85Y29.01
X83.566Y1.778
X85.5Y95.75
X86.106Y1.778
X88.646Y1.778
X91.842Y35.387
X91.842Y32.847
X91.842Y30.307
X91.842Y21.163
X91.842Y18.623
X91.842Y16.083
T8
X91.15Y65.04
X91.15Y49.29
T9
X37.532Y50.688
T10
X90.04Y82.02
X90.04Y69.98
T11
X89.742Y37.447
X89.742Y28.247
X89.742Y23.223
X89.742Y14.023
X95.742Y32.847
X95.742Y18.623
T12
X5.Y95.
X5.Y5.
X94.2Y62.88
X94.2Y51.45
X95.Y95.
X95.Y5.
T7
X87.905Y95.75G85X89.445Y95.75
G05
T0
M30
